<?xml version="1.0" encoding="UTF-8" standalone="no"?>
<!-- Created with Inkscape (http://www.inkscape.org/) -->

<svg
   xmlns:dc="http://purl.org/dc/elements/1.1/"
   xmlns:cc="http://creativecommons.org/ns#"
   xmlns:rdf="http://www.w3.org/1999/02/22-rdf-syntax-ns#"
   xmlns:svg="http://www.w3.org/2000/svg"
   xmlns="http://www.w3.org/2000/svg"
   xmlns:sodipodi="http://sodipodi.sourceforge.net/DTD/sodipodi-0.dtd"
   xmlns:inkscape="http://www.inkscape.org/namespaces/inkscape"
   width="210mm"
   height="297mm"
   viewBox="0 0 210 297"
   version="1.1"
   id="svg8"
   inkscape:version="0.92.3 (2405546, 2018-03-11)"
   sodipodi:docname="bill100.svg">
  <defs
     id="defs2">
    <marker
       inkscape:stockid="Arrow1Lstart"
       orient="auto"
       refY="0.0"
       refX="0.0"
       id="marker4832"
       style="overflow:visible"
       inkscape:isstock="true">
      <path
         id="path4830"
         d="M 0.0,0.0 L 5.0,-5.0 L -12.5,0.0 L 5.0,5.0 L 0.0,0.0 z "
         style="fill-rule:evenodd;stroke:#ffa800;stroke-width:1pt;stroke-opacity:1;fill:#ffcc00;fill-opacity:1"
         transform="scale(0.8) translate(12.5,0)" />
    </marker>
    <marker
       inkscape:stockid="Arrow1Lstart"
       orient="auto"
       refY="0.0"
       refX="0.0"
       id="Arrow1Lstart"
       style="overflow:visible"
       inkscape:isstock="true">
      <path
         id="path4536"
         d="M 0.0,0.0 L 5.0,-5.0 L -12.5,0.0 L 5.0,5.0 L 0.0,0.0 z "
         style="fill-rule:evenodd;stroke:#ffa800;stroke-width:1pt;stroke-opacity:1;fill:#ffcc00;fill-opacity:1"
         transform="scale(0.8) translate(12.5,0)" />
    </marker>
  </defs>
  <sodipodi:namedview
     id="base"
     pagecolor="#ffffff"
     bordercolor="#666666"
     borderopacity="1.0"
     inkscape:pageopacity="0.0"
     inkscape:pageshadow="2"
     inkscape:zoom="0.35355339"
     inkscape:cx="3.6650282"
     inkscape:cy="804.97373"
     inkscape:document-units="mm"
     inkscape:current-layer="layer1"
     showgrid="false"
     inkscape:window-width="1288"
     inkscape:window-height="725"
     inkscape:window-x="292"
     inkscape:window-y="154"
     inkscape:window-maximized="0" />
  <metadata
     id="metadata5">
    <rdf:RDF>
      <cc:Work
         rdf:about="">
        <dc:format>image/svg+xml</dc:format>
        <dc:type
           rdf:resource="http://purl.org/dc/dcmitype/StillImage" />
        <dc:title />
      </cc:Work>
    </rdf:RDF>
  </metadata>
  <g
     inkscape:label="Layer 1"
     inkscape:groupmode="layer"
     id="layer1">
    <path
       style="fill:#00dc4f;fill-opacity:1;stroke:#006445;stroke-width:5.30000019;stroke-linecap:butt;stroke-linejoin:miter;stroke-miterlimit:4;stroke-dasharray:none;stroke-opacity:1"
       d="m 18.142857,99.437025 c 57.452381,-0.503968 109.559373,3.268375 171.288063,-1.511904 1.00794,23.686509 -0.12228,49.511169 4.09289,75.335829 -61.47671,3.90205 -114.400795,-0.74853 -171.601192,1.01536 1.947314,-23.87735 -2.519841,-49.89286 -3.779761,-74.839285 z"
       id="path5044"
       inkscape:connector-curvature="0"
       sodipodi:nodetypes="ccccc" />
    <g
       aria-label="100"
       style="font-style:normal;font-variant:normal;font-weight:bold;font-stretch:normal;font-size:38.78118515px;line-height:1.25;font-family:'Linux Libertine G';-inkscape-font-specification:'Linux Libertine G Bold';letter-spacing:0px;word-spacing:0px;fill:#006445;fill-opacity:1;stroke:none;stroke-width:0.09695294"
       id="text30-3">
      <path
         id="path61"
         style="font-style:normal;font-variant:normal;font-weight:bold;font-stretch:normal;font-family:'Linux Libertine G';-inkscape-font-specification:'Linux Libertine G Bold';fill:#006445;stroke-width:0.09695294"
         d="m 71.232184,107.61443 q -0.530212,0 -0.965743,0.22724 -0.416594,0.20829 -0.889998,0.90893 -0.454467,0.6817 -0.776381,1.8368 -0.321914,1.15511 -0.530211,3.18127 -0.208298,2.00723 -0.208298,4.73403 0,0.85213 0,1.38234 0.01894,0.53021 0.05681,1.53383 0.03787,1.00361 0.113617,1.68531 0.09468,0.66277 0.227233,1.55276 0.151489,0.89 0.397659,1.49596 0.246169,0.58702 0.568083,1.13617 0.321915,0.54914 0.795318,0.83319 0.473403,0.2651 1.060423,0.2651 0.643828,0 1.192976,-0.49234 0.549147,-0.51127 1.041487,-1.70425 0.511275,-1.19297 0.795317,-3.54105 0.302978,-2.36702 0.302978,-5.69978 0,-2.46169 -0.284042,-4.33637 -0.284042,-1.87468 -0.757445,-2.91616 -0.473403,-1.06043 -1.022551,-1.5717 -0.530211,-0.51128 -1.117232,-0.51128 z m -0.189361,22.40144 q -2.064038,0 -3.749353,-0.96574 -1.666379,-0.96575 -2.745739,-2.61319 -1.079359,-1.64744 -1.666379,-3.78722 -0.568083,-2.15872 -0.568083,-4.56361 0,-5.64297 2.518504,-8.86211 2.518505,-3.23807 6.400411,-3.23807 1.249784,0 2.404888,0.34085 1.17404,0.32191 2.329143,1.17404 1.17404,0.83318 2.026166,2.13978 0.852125,1.28765 1.382337,3.37063 0.549147,2.08297 0.549147,4.71509 0,2.65106 -0.568083,4.80978 -0.549148,2.13978 -1.458082,3.52212 -0.889998,1.3634 -2.082974,2.29127 -1.17404,0.90893 -2.367016,1.28766 -1.192975,0.37872 -2.404887,0.37872 z M 51.311379,107.61443 q -0.530212,0 -0.965743,0.22724 -0.416594,0.20829 -0.889998,0.90893 -0.454467,0.6817 -0.776381,1.8368 -0.321914,1.15511 -0.530211,3.18127 -0.208298,2.00723 -0.208298,4.73403 0,0.85213 0,1.38234 0.01894,0.53021 0.05681,1.53383 0.03787,1.00361 0.113617,1.68531 0.09468,0.66277 0.227233,1.55276 0.151489,0.89 0.397659,1.49596 0.246169,0.58702 0.568083,1.13617 0.321915,0.54914 0.795318,0.83319 0.473403,0.2651 1.060423,0.2651 0.643828,0 1.192976,-0.49234 0.549147,-0.51127 1.041487,-1.70425 0.511275,-1.19297 0.795317,-3.54105 0.302978,-2.36702 0.302978,-5.69978 0,-2.46169 -0.284042,-4.33637 -0.284042,-1.87468 -0.757445,-2.91616 -0.473403,-1.06043 -1.022551,-1.5717 -0.530211,-0.51128 -1.117232,-0.51128 z m -0.189361,22.40144 q -2.064038,0 -3.749353,-0.96574 -1.666379,-0.96575 -2.745739,-2.61319 -1.079359,-1.64744 -1.666379,-3.78722 -0.568083,-2.15872 -0.568083,-4.56361 0,-5.64297 2.518504,-8.86211 2.518505,-3.23807 6.400411,-3.23807 1.249784,0 2.404888,0.34085 1.17404,0.32191 2.329143,1.17404 1.17404,0.83318 2.026166,2.13978 0.852125,1.28765 1.382337,3.37063 0.549147,2.08297 0.549147,4.71509 0,2.65106 -0.568083,4.80978 -0.549148,2.13978 -1.458082,3.52212 -0.889998,1.3634 -2.082974,2.29127 -1.17404,0.90893 -2.367016,1.28766 -1.192975,0.37872 -2.404887,0.37872 z m -15.565497,-5.11276 q 0,0.92787 0.227234,1.59064 0.227233,0.64383 0.530211,1.00361 0.321915,0.34085 0.927871,0.54915 0.605956,0.18936 1.041487,0.24617 0.454467,0.0568 1.26872,0.0947 0.284042,0.17043 0.284042,0.66277 0,0.49234 -0.284042,0.66276 -6.362538,-0.0757 -6.476155,-0.0757 l -6.570836,0.0757 q -0.284041,-0.17042 -0.284041,-0.66276 0,-0.49234 0.284041,-0.66277 0.814254,-0.0379 1.249785,-0.0947 0.454467,-0.0568 1.060423,-0.24617 0.605956,-0.2083 0.908934,-0.54915 0.321914,-0.35978 0.549147,-1.00361 0.227234,-0.66277 0.227234,-1.59064 v -12.13805 q 0,-1.3634 -0.170425,-1.72319 -0.151489,-0.35979 -0.568084,-0.35979 -1.76106,0 -4.033395,0.96575 -0.795317,-0.54915 -0.852125,-1.66638 l 4.128075,-1.66638 q 2.916163,-1.15511 4.260628,-1.76106 1.155104,-0.56808 1.931485,-0.56808 0.662764,0 0.662764,0.66276 -0.302978,2.19659 -0.302978,4.26063 z" />
    </g>
    <g
       id="g907"
       transform="translate(-13.758333,4.2333333)">
      <circle
         r="16.215179"
         cy="137.86719"
         cx="73.680435"
         id="path12"
         style="fill:#ffffff;stroke-width:0.16692095" />
      <circle
         r="9.8940086"
         cy="134.29626"
         cx="75.196175"
         id="path31"
         style="fill:#1a1a1a;stroke-width:0.12825565" />
    </g>
    <circle
       style="fill:#ffffff;stroke-width:0.16692095"
       id="path12-8"
       cx="142.875"
       cy="124.49167"
       r="16.215179" />
    <circle
       style="fill:#1a1a1a;stroke-width:0.12825565"
       id="path31-1"
       cx="140.42198"
       cy="128.06451"
       r="9.8940086" />
    <rect
       style="fill:#006445;stroke-width:0.21997933"
       id="rect23"
       width="58.624496"
       height="2.4197714"
       x="23.624962"
       y="174.53273"
       transform="rotate(-17.46749)" />
    <path
       style="fill:#f36eff;fill-opacity:1;stroke-width:0.83141798"
       d="m 86.699807,158.24618 c 8.41838,7.58775 10.45915,27.25435 26.281993,21.59416 18.76454,-5.95587 7.76504,-21.98093 10.61604,-33.32036 z"
       id="path25"
       inkscape:connector-curvature="0"
       sodipodi:nodetypes="cccc" />
    <g
       aria-label="100"
       style="font-style:normal;font-variant:normal;font-weight:bold;font-stretch:normal;font-size:38.78118515px;line-height:1.25;font-family:'Linux Libertine G';-inkscape-font-specification:'Linux Libertine G Bold';letter-spacing:0px;word-spacing:0px;fill:#006445;fill-opacity:1;stroke:none;stroke-width:0.09695294"
       id="text30-3-6">
      <path
         id="path53"
         style="font-style:normal;font-variant:normal;font-weight:bold;font-stretch:normal;font-family:'Linux Libertine G';-inkscape-font-specification:'Linux Libertine G Bold';fill:#006445;stroke-width:0.09695294"
         d="m 176.36064,147.41958 q -0.53022,0 -0.96575,0.22723 -0.41659,0.2083 -0.88999,0.90893 -0.45447,0.68171 -0.77639,1.83681 -0.32191,1.1551 -0.53021,3.18127 -0.20829,2.00723 -0.20829,4.73403 0,0.85213 0,1.38234 0.0189,0.53021 0.0568,1.53382 0.0379,1.00362 0.11362,1.68532 0.0947,0.66276 0.22723,1.55276 0.15149,0.89 0.39766,1.49595 0.24617,0.58702 0.56809,1.13617 0.32191,0.54915 0.79531,0.83319 0.47341,0.26511 1.06043,0.26511 0.64383,0 1.19297,-0.49234 0.54915,-0.51128 1.04149,-1.70425 0.51128,-1.19298 0.79532,-3.54106 0.30298,-2.36701 0.30298,-5.69977 0,-2.4617 -0.28405,-4.33638 -0.28404,-1.87467 -0.75744,-2.91616 -0.4734,-1.06042 -1.02255,-1.5717 -0.53021,-0.51127 -1.11723,-0.51127 z m -0.18937,22.40143 q -2.06403,0 -3.74935,-0.96574 -1.66638,-0.96574 -2.74574,-2.61318 -1.07936,-1.64745 -1.66638,-3.78723 -0.56808,-2.15872 -0.56808,-4.56361 0,-5.64296 2.51851,-8.8621 2.5185,-3.23808 6.40041,-3.23808 1.24978,0 2.40488,0.34085 1.17404,0.32191 2.32915,1.17404 1.17404,0.83319 2.02616,2.13978 0.85213,1.28766 1.38234,3.37063 0.54915,2.08298 0.54915,4.7151 0,2.65106 -0.56809,4.80977 -0.54914,2.13979 -1.45808,3.52212 -0.89,1.3634 -2.08297,2.29127 -1.17404,0.90894 -2.36702,1.28766 -1.19297,0.37872 -2.40489,0.37872 z m -19.73144,-22.40143 q -0.53021,0 -0.96574,0.22723 -0.4166,0.2083 -0.89,0.90893 -0.45447,0.68171 -0.77638,1.83681 -0.32191,1.1551 -0.53021,3.18127 -0.2083,2.00723 -0.2083,4.73403 0,0.85213 0,1.38234 0.0189,0.53021 0.0568,1.53382 0.0379,1.00362 0.11362,1.68532 0.0947,0.66276 0.22723,1.55276 0.15149,0.89 0.39766,1.49595 0.24617,0.58702 0.56808,1.13617 0.32192,0.54915 0.79532,0.83319 0.4734,0.26511 1.06042,0.26511 0.64383,0 1.19298,-0.49234 0.54915,-0.51128 1.04148,-1.70425 0.51128,-1.19298 0.79532,-3.54106 0.30298,-2.36701 0.30298,-5.69977 0,-2.4617 -0.28404,-4.33638 -0.28404,-1.87467 -0.75745,-2.91616 -0.4734,-1.06042 -1.02255,-1.5717 -0.53021,-0.51127 -1.11723,-0.51127 z m -0.18936,22.40143 q -2.06404,0 -3.74935,-0.96574 -1.66638,-0.96574 -2.74574,-2.61318 -1.07936,-1.64745 -1.66638,-3.78723 -0.56808,-2.15872 -0.56808,-4.56361 0,-5.64296 2.5185,-8.8621 2.51851,-3.23808 6.40041,-3.23808 1.24979,0 2.40489,0.34085 1.17404,0.32191 2.32914,1.17404 1.17404,0.83319 2.02617,2.13978 0.85212,1.28766 1.38234,3.37063 0.54914,2.08298 0.54914,4.7151 0,2.65106 -0.56808,4.80977 -0.54915,2.13979 -1.45808,3.52212 -0.89,1.3634 -2.08298,2.29127 -1.17404,0.90894 -2.36701,1.28766 -1.19298,0.37872 -2.40489,0.37872 z m -15.5655,-5.11275 q 0,0.92787 0.22724,1.59063 0.22723,0.64383 0.53021,1.00362 0.32191,0.34085 0.92787,0.54915 0.60595,0.18936 1.04149,0.24617 0.45446,0.0568 1.26872,0.0947 0.28404,0.17042 0.28404,0.66276 0,0.49234 -0.28404,0.66277 -6.36254,-0.0757 -6.47616,-0.0757 l -6.57083,0.0757 q -0.28405,-0.17043 -0.28405,-0.66277 0,-0.49234 0.28405,-0.66276 0.81425,-0.0379 1.24978,-0.0947 0.45447,-0.0568 1.06042,-0.24617 0.60596,-0.2083 0.90894,-0.54915 0.32191,-0.35979 0.54914,-1.00362 0.22724,-0.66276 0.22724,-1.59063 V 152.5702 q 0,-1.3634 -0.17043,-1.72318 -0.15149,-0.35979 -0.56808,-0.35979 -1.76106,0 -4.0334,0.96574 -0.79531,-0.54915 -0.85212,-1.66638 l 4.12807,-1.66638 q 2.91617,-1.1551 4.26063,-1.76106 1.15511,-0.56808 1.93149,-0.56808 0.66276,0 0.66276,0.66276 -0.30298,2.1966 -0.30298,4.26063 z" />
    </g>
  </g>
</svg>
