<?xml version="1.0" encoding="UTF-8" standalone="no"?>
<!-- Created with Inkscape (http://www.inkscape.org/) -->

<svg
   xmlns:dc="http://purl.org/dc/elements/1.1/"
   xmlns:cc="http://creativecommons.org/ns#"
   xmlns:rdf="http://www.w3.org/1999/02/22-rdf-syntax-ns#"
   xmlns:svg="http://www.w3.org/2000/svg"
   xmlns="http://www.w3.org/2000/svg"
   xmlns:sodipodi="http://sodipodi.sourceforge.net/DTD/sodipodi-0.dtd"
   xmlns:inkscape="http://www.inkscape.org/namespaces/inkscape"
   width="210mm"
   height="297mm"
   viewBox="0 0 210 297"
   version="1.1"
   id="svg8"
   inkscape:version="0.92.3 (2405546, 2018-03-11)"
   sodipodi:docname="bill20.svg">
  <defs
     id="defs2">
    <marker
       inkscape:stockid="Arrow1Lstart"
       orient="auto"
       refY="0.0"
       refX="0.0"
       id="marker4832"
       style="overflow:visible"
       inkscape:isstock="true">
      <path
         id="path4830"
         d="M 0.0,0.0 L 5.0,-5.0 L -12.5,0.0 L 5.0,5.0 L 0.0,0.0 z "
         style="fill-rule:evenodd;stroke:#ffa800;stroke-width:1pt;stroke-opacity:1;fill:#ffcc00;fill-opacity:1"
         transform="scale(0.8) translate(12.5,0)" />
    </marker>
    <marker
       inkscape:stockid="Arrow1Lstart"
       orient="auto"
       refY="0.0"
       refX="0.0"
       id="Arrow1Lstart"
       style="overflow:visible"
       inkscape:isstock="true">
      <path
         id="path4536"
         d="M 0.0,0.0 L 5.0,-5.0 L -12.5,0.0 L 5.0,5.0 L 0.0,0.0 z "
         style="fill-rule:evenodd;stroke:#ffa800;stroke-width:1pt;stroke-opacity:1;fill:#ffcc00;fill-opacity:1"
         transform="scale(0.8) translate(12.5,0)" />
    </marker>
  </defs>
  <sodipodi:namedview
     id="base"
     pagecolor="#ffffff"
     bordercolor="#666666"
     borderopacity="1.0"
     inkscape:pageopacity="0.0"
     inkscape:pageshadow="2"
     inkscape:zoom="0.5"
     inkscape:cx="232.43228"
     inkscape:cy="696.79925"
     inkscape:document-units="mm"
     inkscape:current-layer="layer1"
     showgrid="false"
     inkscape:window-width="1288"
     inkscape:window-height="725"
     inkscape:window-x="292"
     inkscape:window-y="154"
     inkscape:window-maximized="0" />
  <metadata
     id="metadata5">
    <rdf:RDF>
      <cc:Work
         rdf:about="">
        <dc:format>image/svg+xml</dc:format>
        <dc:type
           rdf:resource="http://purl.org/dc/dcmitype/StillImage" />
        <dc:title />
      </cc:Work>
    </rdf:RDF>
  </metadata>
  <g
     inkscape:label="Layer 1"
     inkscape:groupmode="layer"
     id="layer1">
    <path
       style="fill:#48dc00;fill-opacity:1;stroke:#005c03;stroke-width:5.30000019;stroke-linecap:butt;stroke-linejoin:miter;stroke-miterlimit:4;stroke-dasharray:none;stroke-opacity:1"
       d="m 18.142857,99.437025 c 57.452381,-0.503968 109.559373,3.268375 171.288063,-1.511904 1.00794,23.686509 -0.12228,49.511169 4.09289,75.335829 -61.47671,3.90205 -114.400795,-0.74853 -171.601192,1.01536 1.947314,-23.87735 -2.519841,-49.89286 -3.779761,-74.839285 z"
       id="path5044"
       inkscape:connector-curvature="0"
       sodipodi:nodetypes="ccccc" />
    <g
       aria-label="20"
       style="font-style:normal;font-variant:normal;font-weight:bold;font-stretch:normal;font-size:49.77055359px;line-height:1.25;font-family:'Linux Libertine G';-inkscape-font-specification:'Linux Libertine G Bold';letter-spacing:0px;word-spacing:0px;fill:#005c03;fill-opacity:1;stroke:none;stroke-width:0.12442638"
       id="text30">
      <path
         id="path65"
         style="font-style:normal;font-variant:normal;font-weight:bold;font-stretch:normal;font-family:'Linux Libertine G';-inkscape-font-specification:'Linux Libertine G Bold';fill:#005c03;stroke-width:0.12442638"
         d="m 63.384585,106.33934 q -0.680457,0 -1.239404,0.29163 -0.534644,0.26732 -1.142195,1.16649 -0.583249,0.87488 -0.996383,2.3573 -0.413135,1.48242 -0.680457,4.08274 -0.267322,2.57602 -0.267322,6.07551 0,1.09359 0,1.77405 0.0243,0.68045 0.07291,1.96846 0.0486,1.28801 0.145812,2.16288 0.12151,0.85057 0.291624,1.99277 0.194417,1.14219 0.510343,1.91986 0.315926,0.75336 0.729061,1.45812 0.413134,0.70476 1.020685,1.06929 0.607551,0.34023 1.360914,0.34023 0.826269,0 1.531027,-0.63186 0.704759,-0.65615 1.336612,-2.18718 0.656155,-1.53103 1.020685,-4.54448 0.388833,-3.03775 0.388833,-7.31491 0,-3.15926 -0.364531,-5.56516 -0.36453,-2.4059 -0.972081,-3.74252 -0.607551,-1.36091 -1.312309,-2.01706 -0.680457,-0.65616 -1.43382,-0.65616 z m -0.24302,28.7493 q -2.648921,0 -4.811802,-1.2394 -2.138578,-1.23941 -3.523794,-3.35368 -1.385216,-2.11428 -2.138579,-4.86041 -0.72906,-2.77043 -0.72906,-5.85679 0,-7.242 3.232169,-11.37335 3.23217,-4.15564 8.214086,-4.15564 1.603934,0 3.086357,0.43743 1.506726,0.41314 2.98915,1.50673 1.506726,1.06929 2.600317,2.74613 1.093591,1.65254 1.774048,4.32576 0.704759,2.67322 0.704759,6.0512 0,3.40229 -0.729061,6.17272 -0.704759,2.74613 -1.871256,4.52018 -1.142196,1.74974 -2.673223,2.94054 -1.506726,1.1665 -3.037754,1.65254 -1.531028,0.48604 -3.086357,0.48604 z M 27.36898,112.00171 q 0,-0.94778 0.388832,-1.99276 0.413135,-1.04499 1.288008,-2.06567 0.874873,-1.04499 2.089974,-1.84696 1.215102,-0.82627 2.98915,-1.33661 1.774048,-0.51034 3.815418,-0.51034 4.593083,0 7.363515,2.64892 2.138578,2.04137 2.138578,5.34644 0,0.77767 -0.07291,1.40952 -0.0486,0.63185 -0.267322,1.26371 l -0.388833,1.09359 q -0.145812,0.43744 -0.631853,1.09359 l -0.801966,0.99638 q -0.291625,0.36453 -1.093592,1.1422 l -1.263705,1.1908 -1.603934,1.45812 -1.79835,1.65254 -2.916243,2.69752 q -2.089975,1.94416 -2.308693,4.42297 h 6.464339 q 1.701142,0 2.843338,-1.09359 1.142195,-1.11789 1.944162,-3.621 1.142195,0 2.235786,0.48604 -0.656154,5.41935 -1.531027,8.16548 H 27.028751 l -0.194416,-1.60393 q 0.12151,-1.0936 1.458122,-2.77043 1.360913,-1.67684 5.710977,-5.83249 l 4.228552,-4.03414 q 1.822653,-1.74974 2.332995,-3.40228 0.510343,-1.70114 0.510343,-4.54448 0,-2.69753 -1.31231,-4.39867 -1.360913,-1.72544 -2.989149,-1.72544 -1.652538,0 -2.891942,1.2151 -1.239403,1.2151 -1.239403,2.21148 0,0.55895 0.315926,1.28801 0.243021,0.72906 0.243021,1.04499 0,1.11789 -0.899175,1.89556 -0.874873,0.75336 -1.992767,0.75336 -1.288007,0 -2.114276,-0.85057 -0.826269,-0.85057 -0.826269,-1.84696 z" />
    </g>
    <g
       id="g907"
       transform="translate(10.054167)">
      <circle
         r="16.215179"
         cy="137.86719"
         cx="73.680435"
         id="path12"
         style="fill:#ffffff;stroke-width:0.16692095" />
      <circle
         r="9.8940086"
         cy="134.29626"
         cx="75.196175"
         id="path31"
         style="fill:#1a1a1a;stroke-width:0.12825565" />
    </g>
    <circle
       style="fill:#ffffff;stroke-width:0.16692095"
       id="path12-8"
       cx="130.70416"
       cy="124.49167"
       r="16.215179" />
    <circle
       style="fill:#1a1a1a;stroke-width:0.12825565"
       id="path31-1"
       cx="128.25114"
       cy="128.06451"
       r="9.8940086" />
    <g
       aria-label="20"
       style="font-style:normal;font-variant:normal;font-weight:bold;font-stretch:normal;font-size:49.77055359px;line-height:1.25;font-family:'Linux Libertine G';-inkscape-font-specification:'Linux Libertine G Bold';letter-spacing:0px;word-spacing:0px;fill:#005c03;fill-opacity:1;stroke:none;stroke-width:0.12442638"
       id="text30-3">
      <path
         id="path59"
         style="font-style:normal;font-variant:normal;font-weight:bold;font-stretch:normal;font-family:'Linux Libertine G';-inkscape-font-specification:'Linux Libertine G Bold';fill:#005c03;stroke-width:0.12442638"
         d="m 172.50615,139.73702 q -0.68046,0 -1.23941,0.29162 -0.53464,0.26732 -1.14219,1.1665 -0.58325,0.87487 -0.99639,2.35729 -0.41313,1.48243 -0.68045,4.08275 -0.26733,2.57601 -0.26733,6.0755 0,1.09359 0,1.77405 0.0243,0.68046 0.0729,1.96846 0.0486,1.28801 0.14581,2.16288 0.12151,0.85058 0.29163,1.99277 0.19441,1.1422 0.51034,1.91986 0.31593,0.75336 0.72906,1.45812 0.41314,0.70476 1.02069,1.06929 0.60755,0.34023 1.36091,0.34023 0.82627,0 1.53103,-0.63185 0.70476,-0.65616 1.33661,-2.18718 0.65615,-1.53103 1.02068,-4.54448 0.38884,-3.03776 0.38884,-7.31491 0,-3.15927 -0.36453,-5.56517 -0.36453,-2.4059 -0.97208,-3.74251 -0.60756,-1.36091 -1.31231,-2.01707 -0.68046,-0.65615 -1.43382,-0.65615 z m -0.24302,28.7493 q -2.64893,0 -4.81181,-1.23941 -2.13857,-1.2394 -3.52379,-3.35368 -1.38522,-2.11427 -2.13858,-4.8604 -0.72906,-2.77043 -0.72906,-5.85679 0,-7.24201 3.23217,-11.37335 3.23217,-4.15565 8.21409,-4.15565 1.60393,0 3.08635,0.43744 1.50673,0.41313 2.98915,1.50672 1.50673,1.06929 2.60032,2.74613 1.09359,1.65254 1.77405,4.32576 0.70476,2.67323 0.70476,6.05121 0,3.40228 -0.72906,6.17271 -0.70476,2.74613 -1.87126,4.52018 -1.1422,1.74975 -2.67322,2.94055 -1.50673,1.16649 -3.03776,1.65253 -1.53102,0.48605 -3.08635,0.48605 z m -35.77259,-23.08693 q 0,-0.94778 0.38883,-1.99277 0.41314,-1.04499 1.28801,-2.06567 0.87487,-1.04499 2.08998,-1.84695 1.2151,-0.82627 2.98914,-1.33662 1.77405,-0.51034 3.81542,-0.51034 4.59309,0 7.36352,2.64892 2.13858,2.04137 2.13858,5.34645 0,0.77766 -0.0729,1.40952 -0.0486,0.63185 -0.26732,1.2637 l -0.38883,1.09359 q -0.14582,0.43744 -0.63186,1.09359 l -0.80196,0.99639 q -0.29163,0.36453 -1.0936,1.14219 l -1.2637,1.1908 -1.60393,1.45812 -1.79836,1.65254 -2.91624,2.69753 q -2.08997,1.94416 -2.30869,4.42297 h 6.46434 q 1.70114,0 2.84334,-1.0936 1.14219,-1.11789 1.94416,-3.621 1.14219,0 2.23578,0.48604 -0.65615,5.41936 -1.53102,8.16548 h -19.22291 l -0.19441,-1.60393 q 0.12151,-1.09359 1.45812,-2.77043 1.36091,-1.67684 5.71097,-5.83249 l 4.22856,-4.03413 q 1.82265,-1.74975 2.33299,-3.40229 0.51034,-1.70114 0.51034,-4.54448 0,-2.69752 -1.3123,-4.39866 -1.36092,-1.72545 -2.98915,-1.72545 -1.65254,0 -2.89195,1.2151 -1.2394,1.2151 -1.2394,2.21149 0,0.55894 0.31593,1.28801 0.24302,0.72906 0.24302,1.04498 0,1.1179 -0.89918,1.89556 -0.87487,0.75336 -1.99276,0.75336 -1.28801,0 -2.11428,-0.85057 -0.82627,-0.85057 -0.82627,-1.84695 z" />
    </g>
  </g>
</svg>
