<?xml version="1.0" encoding="UTF-8" standalone="no"?>
<!-- Created with Inkscape (http://www.inkscape.org/) -->

<svg
   xmlns:dc="http://purl.org/dc/elements/1.1/"
   xmlns:cc="http://creativecommons.org/ns#"
   xmlns:rdf="http://www.w3.org/1999/02/22-rdf-syntax-ns#"
   xmlns:svg="http://www.w3.org/2000/svg"
   xmlns="http://www.w3.org/2000/svg"
   xmlns:sodipodi="http://sodipodi.sourceforge.net/DTD/sodipodi-0.dtd"
   xmlns:inkscape="http://www.inkscape.org/namespaces/inkscape"
   width="210mm"
   height="297mm"
   viewBox="0 0 210 297"
   version="1.1"
   id="svg8"
   inkscape:version="0.92.3 (2405546, 2018-03-11)"
   sodipodi:docname="cert100b.svg">
  <defs
     id="defs2">
    <marker
       inkscape:stockid="Arrow1Lstart"
       orient="auto"
       refY="0.0"
       refX="0.0"
       id="marker4832"
       style="overflow:visible"
       inkscape:isstock="true">
      <path
         id="path4830"
         d="M 0.0,0.0 L 5.0,-5.0 L -12.5,0.0 L 5.0,5.0 L 0.0,0.0 z "
         style="fill-rule:evenodd;stroke:#ffa800;stroke-width:1pt;stroke-opacity:1;fill:#ffcc00;fill-opacity:1"
         transform="scale(0.8) translate(12.5,0)" />
    </marker>
    <marker
       inkscape:stockid="Arrow1Lstart"
       orient="auto"
       refY="0.0"
       refX="0.0"
       id="Arrow1Lstart"
       style="overflow:visible"
       inkscape:isstock="true">
      <path
         id="path4536"
         d="M 0.0,0.0 L 5.0,-5.0 L -12.5,0.0 L 5.0,5.0 L 0.0,0.0 z "
         style="fill-rule:evenodd;stroke:#ffa800;stroke-width:1pt;stroke-opacity:1;fill:#ffcc00;fill-opacity:1"
         transform="scale(0.8) translate(12.5,0)" />
    </marker>
  </defs>
  <sodipodi:namedview
     id="base"
     pagecolor="#ffffff"
     bordercolor="#666666"
     borderopacity="1.0"
     inkscape:pageopacity="0.0"
     inkscape:pageshadow="2"
     inkscape:zoom="0.5"
     inkscape:cx="148.28249"
     inkscape:cy="677.83959"
     inkscape:document-units="mm"
     inkscape:current-layer="layer1"
     showgrid="false"
     inkscape:window-width="1288"
     inkscape:window-height="725"
     inkscape:window-x="278"
     inkscape:window-y="140"
     inkscape:window-maximized="0" />
  <metadata
     id="metadata5">
    <rdf:RDF>
      <cc:Work
         rdf:about="">
        <dc:format>image/svg+xml</dc:format>
        <dc:type
           rdf:resource="http://purl.org/dc/dcmitype/StillImage" />
        <dc:title />
      </cc:Work>
    </rdf:RDF>
  </metadata>
  <g
     inkscape:label="Layer 1"
     inkscape:groupmode="layer"
     id="layer1">
    <path
       style="fill:#fff304;fill-opacity:1;stroke:#f85900;stroke-width:5.30000019;stroke-linecap:butt;stroke-linejoin:miter;stroke-miterlimit:4;stroke-dasharray:none;stroke-opacity:1"
       d="m 18.142857,99.437025 c 57.452381,-0.503968 109.559373,3.268375 171.288063,-1.511904 1.00794,23.686509 -0.12228,49.511169 4.09289,75.335829 -61.47671,3.90205 -114.400795,-0.74853 -171.601192,1.01536 1.947314,-23.87735 -2.519841,-49.89286 -3.779761,-74.839285 z"
       id="path5044"
       inkscape:connector-curvature="0"
       sodipodi:nodetypes="ccccc" />
    <g
       aria-label="100B"
       style="font-style:normal;font-variant:normal;font-weight:bold;font-stretch:normal;font-size:36.39279938px;line-height:1.25;font-family:'Linux Libertine G';-inkscape-font-specification:'Linux Libertine G Bold';letter-spacing:0px;word-spacing:0px;fill:#f85900;fill-opacity:1;stroke:none;stroke-width:0.090982"
       id="text839">
      <path
         id="path36"
         style="font-style:normal;font-variant:normal;font-weight:bold;font-stretch:normal;font-family:'Linux Libertine G';-inkscape-font-specification:'Linux Libertine G Bold';fill:#f85900;stroke-width:0.090982"
         d="m 89.058405,109.11863 v 6.77034 h 2.025771 q 4.229241,0 4.229241,-4.10485 0,-4.22924 -3.713913,-4.22924 -0.870726,0 -1.403824,0.0888 -0.515328,0.0888 -0.764107,0.31986 -0.231009,0.21324 -0.302088,0.46202 -0.07108,0.24878 -0.07108,0.69303 z m 0,8.29855 v 9.0982 q 0,0.8885 0.426478,1.2439 0.444248,0.35539 1.972462,0.35539 1.368283,0 2.398939,-0.35539 1.048425,-0.3554 1.634833,-0.8885 0.586407,-0.5331 0.941806,-1.27943 0.355398,-0.76411 0.462018,-1.4216 0.124389,-0.65749 0.124389,-1.40382 0,-2.45225 -1.350514,-3.89161 -1.332744,-1.45714 -4.033772,-1.45714 z m -2.523329,-11.31944 q 0.497558,0 2.32786,-0.0355 1.848072,-0.0355 2.843187,-0.0355 2.114621,0 3.713914,0.3554 1.599293,0.3554 2.523329,0.90627 0.941806,0.55086 1.510443,1.33274 0.568641,0.78188 0.764111,1.51044 0.19546,0.72857 0.19546,1.56376 0,1.38605 -1.012881,2.73656 -0.995115,1.35052 -2.487789,2.00801 v 0.0711 q 2.843188,0.74633 4.14039,2.29232 1.31498,1.54598 1.31498,3.99823 0,1.45713 -0.51533,2.64772 -0.49756,1.19058 -1.59929,2.16793 -1.101739,0.95957 -3.074201,1.49267 -1.972461,0.5331 -4.673489,0.5331 -1.190585,0 -3.269666,-0.0355 -2.061311,-0.0355 -2.701028,-0.0355 l -5.597525,0.0711 q -0.266549,-0.15993 -0.266549,-0.62195 0,-0.46202 0.266549,-0.62195 0.604177,-0.0355 0.924036,-0.0711 0.337628,-0.0355 0.746337,-0.14216 0.408708,-0.12439 0.604177,-0.31985 0.195469,-0.21324 0.390938,-0.56864 0.213239,-0.3554 0.284319,-0.8885 0.07108,-0.5331 0.07108,-1.27943 V 110.5404 q 0,-0.74633 -0.07108,-1.27943 -0.07108,-0.5331 -0.284319,-0.8885 -0.195469,-0.3554 -0.390938,-0.55087 -0.195469,-0.21324 -0.604177,-0.31985 -0.408709,-0.12439 -0.746337,-0.15993 -0.319859,-0.0355 -0.924036,-0.0711 -0.266549,-0.15993 -0.266549,-0.62195 0,-0.46202 0.266549,-0.62195 4.140392,0.0711 5.597525,0.0711 z m -15.530912,2.80765 q -0.497558,0 -0.906266,0.21324 -0.390938,0.19547 -0.835186,0.85295 -0.426478,0.63972 -0.728567,1.72369 -0.302089,1.08396 -0.497558,2.98534 -0.195469,1.88362 -0.195469,4.44248 0,0.79965 0,1.29721 0.01777,0.49756 0.05331,1.43936 0.03554,0.94181 0.106619,1.58152 0.08885,0.62195 0.213239,1.45714 0.14216,0.83518 0.373169,1.40382 0.231009,0.55087 0.533097,1.0662 0.302089,0.51533 0.746337,0.78187 0.444248,0.24878 0.995116,0.24878 0.604177,0 1.119505,-0.46201 0.515327,-0.47979 0.977345,-1.5993 0.479788,-1.1195 0.746337,-3.32297 0.284319,-2.22124 0.284319,-5.34875 0,-2.31009 -0.266549,-4.06931 -0.266549,-1.75922 -0.710797,-2.73657 -0.444248,-0.99512 -0.959576,-1.4749 -0.497557,-0.47979 -1.048425,-0.47979 z m -0.177699,21.02182 q -1.936922,0 -3.518445,-0.90627 -1.563753,-0.90627 -2.576638,-2.45225 -1.012886,-1.54598 -1.563753,-3.55398 -0.533098,-2.02577 -0.533098,-4.28255 0,-5.29544 2.3634,-8.31633 2.363399,-3.03865 6.006233,-3.03865 1.172815,0 2.25678,0.31985 1.101735,0.30209 2.1857,1.10174 1.101736,0.78188 1.901382,2.008 0.799646,1.20836 1.297204,3.16305 0.515328,1.95469 0.515328,4.42471 0,2.48779 -0.533098,4.51356 -0.515327,2.008 -1.368284,3.3052 -0.835186,1.27944 -1.954691,2.15016 -1.101735,0.85296 -2.22124,1.20836 -1.119505,0.3554 -2.25678,0.3554 z M 52.310206,108.90539 q -0.497558,0 -0.906266,0.21324 -0.390939,0.19547 -0.835187,0.85295 -0.426478,0.63972 -0.728566,1.72369 -0.302089,1.08396 -0.497558,2.98534 -0.195469,1.88362 -0.195469,4.44248 0,0.79965 0,1.29721 0.01777,0.49756 0.05331,1.43936 0.03554,0.94181 0.10662,1.58152 0.08885,0.62195 0.213239,1.45714 0.142159,0.83518 0.373168,1.40382 0.231009,0.55087 0.533098,1.0662 0.302089,0.51533 0.746337,0.78187 0.444248,0.24878 0.995115,0.24878 0.604178,0 1.119505,-0.46201 0.515328,-0.47979 0.977346,-1.5993 0.479788,-1.1195 0.746337,-3.32297 0.284319,-2.22124 0.284319,-5.34875 0,-2.31009 -0.266549,-4.06931 -0.266549,-1.75922 -0.710797,-2.73657 -0.444248,-0.99512 -0.959576,-1.4749 -0.497558,-0.47979 -1.048426,-0.47979 z m -0.1777,21.02182 q -1.936921,0 -3.518444,-0.90627 -1.563753,-0.90627 -2.576639,-2.45225 -1.012885,-1.54598 -1.563753,-3.55398 -0.533097,-2.02577 -0.533097,-4.28255 0,-5.29544 2.363399,-8.31633 2.3634,-3.03865 6.006234,-3.03865 1.172815,0 2.25678,0.31985 1.101735,0.30209 2.1857,1.10174 1.101735,0.78188 1.901382,2.008 0.799646,1.20836 1.297204,3.16305 0.515328,1.95469 0.515328,4.42471 0,2.48779 -0.533098,4.51356 -0.515328,2.008 -1.368284,3.3052 -0.835186,1.27944 -1.954691,2.15016 -1.101735,0.85296 -2.22124,1.20836 -1.119506,0.3554 -2.256781,0.3554 z M 37.52563,125.12933 q 0,0.87072 0.213239,1.49267 0.213239,0.60418 0.497558,0.94181 0.302089,0.31986 0.870726,0.51532 0.568638,0.1777 0.977346,0.23101 0.426478,0.0533 1.190585,0.0889 0.266548,0.15993 0.266548,0.62195 0,0.46202 -0.266548,0.62195 -5.970694,-0.0711 -6.077314,-0.0711 l -6.166162,0.0711 q -0.266549,-0.15993 -0.266549,-0.62195 0,-0.46202 0.266549,-0.62195 0.764106,-0.0355 1.172814,-0.0889 0.426479,-0.0533 0.995116,-0.23101 0.568638,-0.19546 0.852956,-0.51532 0.302089,-0.33763 0.515328,-0.94181 0.213239,-0.62195 0.213239,-1.49267 v -11.39052 q 0,-1.27944 -0.159929,-1.61707 -0.14216,-0.33762 -0.533098,-0.33762 -1.652603,0 -3.784993,0.90626 -0.746337,-0.51533 -0.799647,-1.56375 l 3.873843,-1.56375 q 2.736568,-1.08397 3.998233,-1.65261 1.083965,-0.53309 1.812532,-0.53309 0.621947,0 0.621947,0.62194 -0.284319,2.06131 -0.284319,3.99824 z" />
    </g>
    <circle
       style="fill:#ffffff;stroke-width:0.16692095"
       id="path12"
       cx="61.509602"
       cy="147.92136"
       r="16.215179" />
    <circle
       style="fill:#1a1a1a;stroke-width:0.12825565"
       id="path31"
       cx="63.025341"
       cy="144.35043"
       r="9.8940086" />
    <circle
       style="fill:#ffffff;stroke-width:0.16692095"
       id="path12-8"
       cx="159.27917"
       cy="121.31667"
       r="16.215179" />
    <circle
       style="fill:#1a1a1a;stroke-width:0.12825565"
       id="path31-1"
       cx="156.82616"
       cy="124.88951"
       r="9.8940086" />
    <g
       aria-label="100B"
       style="font-style:normal;font-variant:normal;font-weight:bold;font-stretch:normal;font-size:36.50603104px;line-height:1.25;font-family:'Linux Libertine G';-inkscape-font-specification:'Linux Libertine G Bold';letter-spacing:0px;word-spacing:0px;fill:#f85900;fill-opacity:1;stroke:none;stroke-width:0.09126507"
       id="text839-9">
      <path
         id="path26"
         style="font-style:normal;font-variant:normal;font-weight:bold;font-stretch:normal;font-family:'Linux Libertine G';-inkscape-font-specification:'Linux Libertine G Bold';fill:#f85900;stroke-width:0.09126507"
         d="m 169.41593,145.76311 v 6.7914 h 2.03207 q 4.2424,0 4.2424,-4.11762 0,-4.2424 -3.72547,-4.2424 -0.87343,0 -1.40819,0.0891 -0.51693,0.0891 -0.76648,0.32086 -0.23173,0.2139 -0.30303,0.46345 -0.0713,0.24955 -0.0713,0.69519 z m 0,8.32437 v 9.12651 q 0,0.89126 0.4278,1.24776 0.44563,0.35651 1.9786,0.35651 1.37254,0 2.4064,-0.35651 1.05169,-0.3565 1.63992,-0.89126 0.58824,-0.53476 0.94474,-1.28341 0.3565,-0.76649 0.46346,-1.42602 0.12477,-0.65953 0.12477,-1.40819 0,-2.45988 -1.35471,-3.90372 -1.33689,-1.46167 -4.04633,-1.46167 z m -2.53118,-11.35466 q 0.4991,0 2.3351,-0.0357 1.85382,-0.0357 2.85203,-0.0357 2.1212,0 3.72547,0.3565 1.60427,0.35651 2.53118,0.90909 0.94474,0.55258 1.51515,1.33689 0.5704,0.78431 0.76648,1.51514 0.19608,0.73084 0.19608,1.56862 0,1.39037 -1.01604,2.74508 -0.99821,1.35472 -2.49553,2.01425 v 0.0713 q 2.85203,0.74866 4.15327,2.29945 1.31907,1.5508 1.31907,4.01068 0,1.46166 -0.51693,2.65595 -0.49911,1.19429 -1.60427,2.17468 -1.10516,0.96256 -3.08376,1.49732 -1.9786,0.53475 -4.68803,0.53475 -1.19429,0 -3.27984,-0.0357 -2.06772,-0.0357 -2.70943,-0.0357 l -5.61494,0.0713 q -0.26738,-0.16042 -0.26738,-0.62388 0,-0.46345 0.26738,-0.62388 0.60605,-0.0357 0.92691,-0.0713 0.33868,-0.0357 0.74866,-0.1426 0.40998,-0.12478 0.60605,-0.32086 0.19608,-0.2139 0.39216,-0.5704 0.2139,-0.35651 0.2852,-0.89126 0.0713,-0.53476 0.0713,-1.28342 v -14.6345 q 0,-0.74866 -0.0713,-1.28341 -0.0713,-0.53476 -0.2852,-0.89126 -0.19608,-0.35651 -0.39216,-0.55259 -0.19607,-0.2139 -0.60605,-0.32085 -0.40998,-0.12478 -0.74866,-0.16043 -0.32086,-0.0357 -0.92691,-0.0713 -0.26738,-0.16042 -0.26738,-0.62388 0,-0.46345 0.26738,-0.62388 4.15327,0.0713 5.61494,0.0713 z m -15.57924,2.81638 q -0.4991,0 -0.90908,0.21391 -0.39216,0.19607 -0.83779,0.85561 -0.4278,0.6417 -0.73083,1.72904 -0.30303,1.08734 -0.49911,2.99464 -0.19607,1.88947 -0.19607,4.4563 0,0.80213 0,1.30124 0.0178,0.4991 0.0535,1.44384 0.0356,0.94474 0.10695,1.58644 0.0891,0.62389 0.21391,1.46167 0.1426,0.83779 0.37433,1.40819 0.23172,0.55259 0.53475,1.06952 0.30303,0.51693 0.74866,0.78431 0.44563,0.24955 0.99821,0.24955 0.60606,0 1.12299,-0.46346 0.51693,-0.48128 0.98039,-1.60427 0.48128,-1.12298 0.74866,-3.33331 0.2852,-2.22815 0.2852,-5.36539 0,-2.31728 -0.26738,-4.08197 -0.26738,-1.7647 -0.71301,-2.74508 -0.44563,-0.99822 -0.96256,-1.4795 -0.4991,-0.48128 -1.05169,-0.48128 z m -0.17825,21.08723 q -1.94295,0 -3.52939,-0.90909 -1.56862,-0.90908 -2.58466,-2.45988 -1.01603,-1.55079 -1.56861,-3.56504 -0.53476,-2.03207 -0.53476,-4.29588 0,-5.31191 2.37075,-8.34219 2.37076,-3.04812 6.02492,-3.04812 1.17647,0 2.26381,0.32086 1.10516,0.30303 2.1925,1.10516 1.10516,0.78431 1.90729,2.01425 0.80214,1.21211 1.30124,3.17289 0.51694,1.96077 0.51694,4.43848 0,2.49552 -0.53476,4.5276 -0.51693,2.01425 -1.37254,3.31549 -0.83779,1.28341 -1.96077,2.15685 -1.10517,0.85561 -2.22816,1.21211 -1.12298,0.35651 -2.2638,0.35651 z M 132.55339,145.5492 q -0.4991,0 -0.90908,0.21391 -0.39216,0.19607 -0.83779,0.85561 -0.4278,0.6417 -0.73083,1.72904 -0.30303,1.08734 -0.49911,2.99464 -0.19607,1.88947 -0.19607,4.4563 0,0.80213 0,1.30124 0.0178,0.4991 0.0535,1.44384 0.0357,0.94474 0.10695,1.58644 0.0891,0.62389 0.21391,1.46167 0.1426,0.83779 0.37432,1.40819 0.23173,0.55259 0.53476,1.06952 0.30303,0.51693 0.74866,0.78431 0.44563,0.24955 0.99821,0.24955 0.60606,0 1.12299,-0.46346 0.51693,-0.48128 0.98039,-1.60427 0.48128,-1.12298 0.74866,-3.33331 0.2852,-2.22815 0.2852,-5.36539 0,-2.31728 -0.26738,-4.08197 -0.26738,-1.7647 -0.71301,-2.74508 -0.44563,-0.99822 -0.96256,-1.4795 -0.49911,-0.48128 -1.05169,-0.48128 z m -0.17825,21.08723 q -1.94295,0 -3.52939,-0.90909 -1.56862,-0.90908 -2.58466,-2.45988 -1.01603,-1.55079 -1.56861,-3.56504 -0.53476,-2.03207 -0.53476,-4.29588 0,-5.31191 2.37075,-8.34219 2.37075,-3.04812 6.02492,-3.04812 1.17647,0 2.2638,0.32086 1.10517,0.30303 2.19251,1.10516 1.10516,0.78431 1.90729,2.01425 0.80214,1.21211 1.30124,3.17289 0.51693,1.96077 0.51693,4.43848 0,2.49552 -0.53475,4.5276 -0.51693,2.01425 -1.37254,3.31549 -0.83779,1.28341 -1.96078,2.15685 -1.10516,0.85561 -2.22815,1.21211 -1.12299,0.35651 -2.2638,0.35651 z m -14.65232,-4.81281 q 0,0.87344 0.2139,1.49732 0.2139,0.60605 0.49911,0.94473 0.30303,0.32086 0.87343,0.51693 0.57041,0.17826 0.98039,0.23173 0.4278,0.0535 1.19429,0.0891 0.26738,0.16043 0.26738,0.62388 0,0.46346 -0.26738,0.62388 -5.98927,-0.0713 -6.09622,-0.0713 l -6.18535,0.0713 q -0.26738,-0.16042 -0.26738,-0.62388 0,-0.46345 0.26738,-0.62388 0.76648,-0.0357 1.17646,-0.0891 0.42781,-0.0535 0.99821,-0.23173 0.57041,-0.19607 0.85561,-0.51693 0.30303,-0.33868 0.51693,-0.94473 0.21391,-0.62388 0.21391,-1.49732 v -11.42596 q 0,-1.28342 -0.16043,-1.62209 -0.1426,-0.33868 -0.53476,-0.33868 -1.65774,0 -3.79677,0.90908 -0.74865,-0.51693 -0.80213,-1.56862 l 3.8859,-1.56861 q 2.74508,-1.08734 4.01067,-1.65775 1.08734,-0.53476 1.81817,-0.53476 0.62388,0 0.62388,0.62389 -0.2852,2.06772 -0.2852,4.01067 z" />
    </g>
  </g>
</svg>
