<?xml version="1.0" encoding="UTF-8" standalone="no"?>
<!-- Created with Inkscape (http://www.inkscape.org/) -->

<svg
   xmlns:dc="http://purl.org/dc/elements/1.1/"
   xmlns:cc="http://creativecommons.org/ns#"
   xmlns:rdf="http://www.w3.org/1999/02/22-rdf-syntax-ns#"
   xmlns:svg="http://www.w3.org/2000/svg"
   xmlns="http://www.w3.org/2000/svg"
   xmlns:sodipodi="http://sodipodi.sourceforge.net/DTD/sodipodi-0.dtd"
   xmlns:inkscape="http://www.inkscape.org/namespaces/inkscape"
   width="210mm"
   height="297mm"
   viewBox="0 0 210 297"
   version="1.1"
   id="svg8"
   inkscape:version="0.92.3 (2405546, 2018-03-11)"
   sodipodi:docname="cert10k.svg">
  <defs
     id="defs2">
    <marker
       inkscape:stockid="Arrow1Lstart"
       orient="auto"
       refY="0.0"
       refX="0.0"
       id="marker4832"
       style="overflow:visible"
       inkscape:isstock="true">
      <path
         id="path4830"
         d="M 0.0,0.0 L 5.0,-5.0 L -12.5,0.0 L 5.0,5.0 L 0.0,0.0 z "
         style="fill-rule:evenodd;stroke:#ffa800;stroke-width:1pt;stroke-opacity:1;fill:#ffcc00;fill-opacity:1"
         transform="scale(0.8) translate(12.5,0)" />
    </marker>
    <marker
       inkscape:stockid="Arrow1Lstart"
       orient="auto"
       refY="0.0"
       refX="0.0"
       id="Arrow1Lstart"
       style="overflow:visible"
       inkscape:isstock="true">
      <path
         id="path4536"
         d="M 0.0,0.0 L 5.0,-5.0 L -12.5,0.0 L 5.0,5.0 L 0.0,0.0 z "
         style="fill-rule:evenodd;stroke:#ffa800;stroke-width:1pt;stroke-opacity:1;fill:#ffcc00;fill-opacity:1"
         transform="scale(0.8) translate(12.5,0)" />
    </marker>
  </defs>
  <sodipodi:namedview
     id="base"
     pagecolor="#ffffff"
     bordercolor="#666666"
     borderopacity="1.0"
     inkscape:pageopacity="0.0"
     inkscape:pageshadow="2"
     inkscape:zoom="0.5"
     inkscape:cx="148.28249"
     inkscape:cy="677.83959"
     inkscape:document-units="mm"
     inkscape:current-layer="layer1"
     showgrid="false"
     inkscape:window-width="1288"
     inkscape:window-height="725"
     inkscape:window-x="278"
     inkscape:window-y="140"
     inkscape:window-maximized="0" />
  <metadata
     id="metadata5">
    <rdf:RDF>
      <cc:Work
         rdf:about="">
        <dc:format>image/svg+xml</dc:format>
        <dc:type
           rdf:resource="http://purl.org/dc/dcmitype/StillImage" />
        <dc:title />
      </cc:Work>
    </rdf:RDF>
  </metadata>
  <g
     inkscape:label="Layer 1"
     inkscape:groupmode="layer"
     id="layer1">
    <path
       style="fill:#00eae6;fill-opacity:1;stroke:#007489;stroke-width:5.30000019;stroke-linecap:butt;stroke-linejoin:miter;stroke-miterlimit:4;stroke-dasharray:none;stroke-opacity:1"
       d="m 18.142857,99.437025 c 57.452381,-0.503968 109.559373,3.268375 171.288063,-1.511904 1.00794,23.686509 -0.12228,49.511169 4.09289,75.335829 -61.47671,3.90205 -114.400795,-0.74853 -171.601192,1.01536 1.947314,-23.87735 -2.519841,-49.89286 -3.779761,-74.839285 z"
       id="path5044"
       inkscape:connector-curvature="0"
       sodipodi:nodetypes="ccccc" />
    <g
       aria-label="10K"
       style="font-style:normal;font-variant:normal;font-weight:bold;font-stretch:normal;font-size:32.36405182px;line-height:1.25;font-family:'Linux Libertine G';-inkscape-font-specification:'Linux Libertine G Bold';letter-spacing:0px;word-spacing:0px;fill:#007489;fill-opacity:1;stroke:none;stroke-width:0.08091012"
       id="text839">
      <path
         id="path32"
         style="font-style:normal;font-variant:normal;font-weight:bold;font-stretch:normal;font-family:'Linux Libertine G';-inkscape-font-specification:'Linux Libertine G Bold';fill:#007489;stroke-width:0.08091012"
         d="m 59.876028,109.5114 q 0,-0.66371 -0.06321,-1.1378 -0.06321,-0.47408 -0.252844,-0.79014 -0.173831,-0.31605 -0.347661,-0.48988 -0.17383,-0.18963 -0.537294,-0.28445 -0.363463,-0.11062 -0.663716,-0.14223 -0.284449,-0.0316 -0.821743,-0.0632 -0.237042,-0.14222 -0.237042,-0.55309 0,-0.41087 0.237042,-0.5531 2.591652,0.0632 4.993672,0.0632 2.323006,0 4.914658,-0.0632 0.237042,0.14223 0.237042,0.5531 0,0.41087 -0.237042,0.55309 -0.537294,0.0316 -0.837546,0.0632 -0.28445,0.0316 -0.647913,0.14223 -0.363464,0.0948 -0.537294,0.28445 -0.17383,0.17383 -0.363464,0.48988 -0.17383,0.31606 -0.237041,0.79014 -0.06321,0.47409 -0.06321,1.1378 v 5.51516 q 0.726927,-0.12642 1.485459,-0.64791 0.774336,-0.52149 2.275598,-1.86472 2.449428,-2.03856 3.460804,-3.06574 2.544244,-2.59165 -0.158027,-2.8445 -0.142225,-0.14222 -0.142225,-0.55309 0,-0.41087 0.142225,-0.5531 3.034129,0.0632 3.982295,0.0632 0.03161,0 3.065735,-0.0632 0.142225,0.14223 0.142225,0.5531 0,0.41087 -0.142225,0.55309 -0.584702,0.079 -1.137798,0.26865 -0.553097,0.17383 -0.948166,0.36346 -0.379266,0.18964 -0.91656,0.60051 -0.521491,0.39507 -0.805941,0.64791 l -0.884954,0.80594 -0.932363,0.83755 -3.524015,3.12895 q -0.142225,0.12642 -0.237042,0.25284 -0.09482,0.11062 -0.126422,0.22124 -0.0316,0.11062 -0.04741,0.17383 0,0.0632 0,0.17383 0.0158,0.0948 0.0158,0.12642 0,0.30025 0.963968,1.45386 l 7.095439,8.37546 q 0.584702,0.67952 1.153601,0.96397 0.5689,0.28445 1.374841,0.39507 0.142224,0.14222 0.142224,0.55309 0,0.41087 -0.142224,0.5531 -3.03413,-0.0632 -3.60303,-0.0632 -2.259794,0 -3.555621,0.0632 -0.126422,0 -0.158027,-0.18963 -0.11062,-0.90076 -1.169404,-2.2756 l -4.883053,-6.36851 q -0.489886,-0.63211 -0.853349,-0.90076 -0.347661,-0.26865 -0.932363,-0.31606 v 6.03666 q 0,0.66371 0.06321,1.1378 0.06321,0.47408 0.237041,0.79013 0.189634,0.31606 0.363464,0.50569 0.17383,0.17383 0.537294,0.28445 0.363463,0.0948 0.647913,0.12642 0.300252,0.0316 0.837546,0.0632 0.237042,0.14222 0.237042,0.55309 0,0.41087 -0.237042,0.5531 -2.591652,-0.0632 -4.914658,-0.0632 -2.40202,0 -4.993672,0.0632 -0.237042,-0.14223 -0.237042,-0.5531 0,-0.41087 0.237042,-0.55309 0.537294,-0.0316 0.821743,-0.0632 0.300253,-0.0316 0.663716,-0.12642 0.363464,-0.11062 0.537294,-0.28445 0.17383,-0.18963 0.347661,-0.50569 0.189633,-0.31605 0.252844,-0.79013 0.06321,-0.47409 0.06321,-1.1378 z m -11.899479,-1.45385 q -0.442477,0 -0.805941,0.18963 -0.34766,0.17383 -0.742729,0.75853 -0.379267,0.5689 -0.647914,1.53287 -0.268646,0.96397 -0.442477,2.65486 -0.17383,1.6751 -0.17383,3.95069 0,0.71113 0,1.15361 0.0158,0.44247 0.04741,1.28002 0.03161,0.83755 0.09482,1.40645 0.07901,0.55309 0.189633,1.29582 0.126422,0.74273 0.331858,1.24842 0.205436,0.48988 0.474083,0.94817 0.268646,0.45828 0.663715,0.69532 0.395069,0.22124 0.884955,0.22124 0.537294,0 0.995574,-0.41088 0.45828,-0.42667 0.869152,-1.42225 0.426674,-0.99557 0.663716,-2.95511 0.252844,-1.97535 0.252844,-4.75663 0,-2.05436 -0.237042,-3.61883 -0.237041,-1.56448 -0.63211,-2.43363 -0.395069,-0.88495 -0.853349,-1.31163 -0.442477,-0.42667 -0.932363,-0.42667 z m -0.158028,18.69466 q -1.7225,0 -3.128946,-0.80594 -1.390643,-0.80594 -2.2914,-2.18078 -0.900757,-1.37484 -1.390643,-3.16055 -0.474083,-1.80152 -0.474083,-3.80847 0,-4.70922 2.101767,-7.39569 2.101767,-2.70227 5.341333,-2.70227 1.042982,0 2.006951,0.28445 0.979771,0.26865 1.943739,0.97977 0.979771,0.69532 1.690895,1.78571 0.711124,1.07459 1.153602,2.81289 0.45828,1.73831 0.45828,3.93489 0,2.21239 -0.474083,4.0139 -0.45828,1.78571 -1.216813,2.93932 -0.742729,1.13779 -1.738303,1.91213 -0.979771,0.75853 -1.975345,1.07459 -0.995574,0.31605 -2.006951,0.31605 z m -12.989869,-4.26674 q 0,0.77433 0.189633,1.32743 0.189633,0.53729 0.442477,0.83755 0.268647,0.28445 0.774336,0.45828 0.505688,0.15802 0.869151,0.20543 0.379267,0.0474 1.058785,0.079 0.237042,0.14222 0.237042,0.55309 0,0.41087 -0.237042,0.5531 -5.309727,-0.0632 -5.404543,-0.0632 l -5.483558,0.0632 q -0.237041,-0.14223 -0.237041,-0.5531 0,-0.41087 0.237041,-0.55309 0.679519,-0.0316 1.042982,-0.079 0.379266,-0.0474 0.884955,-0.20543 0.505688,-0.17383 0.758532,-0.45828 0.268647,-0.30026 0.45828,-0.83755 0.189633,-0.5531 0.189633,-1.32743 V 112.3559 q 0,-1.1378 -0.142225,-1.43805 -0.126422,-0.30026 -0.474082,-0.30026 -1.469657,0 -3.365988,0.80595 -0.663716,-0.45828 -0.711124,-1.39065 l 3.445001,-1.39064 q 2.433625,-0.96397 3.555621,-1.46966 0.963969,-0.47408 1.611882,-0.47408 0.553096,0 0.553096,0.5531 -0.252844,1.83312 -0.252844,3.55562 z" />
    </g>
    <circle
       style="fill:#ffffff;stroke-width:0.16692095"
       id="path12"
       cx="83.205437"
       cy="137.86719"
       r="16.215179" />
    <circle
       style="fill:#1a1a1a;stroke-width:0.12825565"
       id="path31"
       cx="84.721176"
       cy="134.29626"
       r="9.8940086" />
    <circle
       style="fill:#ffffff;stroke-width:0.16692095"
       id="path12-8"
       cx="141.28751"
       cy="122.90417"
       r="16.215179" />
    <circle
       style="fill:#1a1a1a;stroke-width:0.12825565"
       id="path31-1"
       cx="138.83449"
       cy="126.47701"
       r="9.8940086" />
    <g
       aria-label="10K"
       style="font-style:normal;font-variant:normal;font-weight:bold;font-stretch:normal;font-size:32.47728348px;line-height:1.25;font-family:'Linux Libertine G';-inkscape-font-specification:'Linux Libertine G Bold';letter-spacing:0px;word-spacing:0px;fill:#007489;fill-opacity:1;stroke:none;stroke-width:0.08119319"
       id="text839-9">
      <path
         id="path24"
         style="font-style:normal;font-variant:normal;font-weight:bold;font-stretch:normal;font-family:'Linux Libertine G';-inkscape-font-specification:'Linux Libertine G Bold';fill:#007489;stroke-width:0.08119319"
         d="m 167.67751,149.86446 q 0,-0.66603 -0.0634,-1.14178 -0.0634,-0.47574 -0.25373,-0.7929 -0.17444,-0.31716 -0.34888,-0.4916 -0.17444,-0.19029 -0.53917,-0.28544 -0.36474,-0.11101 -0.66604,-0.14272 -0.28545,-0.0317 -0.82462,-0.0634 -0.23787,-0.14272 -0.23787,-0.55503 0,-0.41231 0.23787,-0.55503 2.60072,0.0634 5.01114,0.0634 2.33114,0 4.93186,-0.0634 0.23787,0.14272 0.23787,0.55503 0,0.41231 -0.23787,0.55503 -0.53918,0.0317 -0.84048,0.0634 -0.28545,0.0317 -0.65018,0.14272 -0.36474,0.0952 -0.53917,0.28544 -0.17444,0.17444 -0.36474,0.4916 -0.17444,0.31716 -0.23787,0.7929 -0.0634,0.47575 -0.0634,1.14178 v 5.53446 q 0.72947,-0.12686 1.49065,-0.65018 0.77705,-0.52331 2.28356,-1.87125 2.458,-2.04568 3.47292,-3.07646 2.55314,-2.60072 -0.15858,-2.85445 -0.14273,-0.14272 -0.14273,-0.55503 0,-0.41231 0.14273,-0.55503 3.04474,0.0634 3.99622,0.0634 0.0317,0 3.07646,-0.0634 0.14273,0.14272 0.14273,0.55503 0,0.41231 -0.14273,0.55503 -0.58674,0.0793 -1.14177,0.26959 -0.55504,0.17444 -0.95149,0.36474 -0.38059,0.19029 -0.91976,0.6026 -0.52332,0.39645 -0.80876,0.65018 l -0.88806,0.80876 -0.93562,0.84048 -3.53635,3.13989 q -0.14272,0.12687 -0.23787,0.25373 -0.0951,0.11101 -0.12686,0.22201 -0.0317,0.11101 -0.0476,0.17444 0,0.0634 0,0.17444 0.0158,0.0951 0.0158,0.12686 0,0.30131 0.96734,1.45895 l 7.12027,8.40476 q 0.58675,0.6819 1.15764,0.96734 0.57089,0.28545 1.37965,0.39645 0.14272,0.14273 0.14272,0.55503 0,0.41231 -0.14272,0.55504 -3.04475,-0.0634 -3.61564,-0.0634 -2.2677,0 -3.56806,0.0634 -0.12686,0 -0.15858,-0.1903 -0.11101,-0.90391 -1.1735,-2.28356 l -4.90013,-6.39079 q -0.4916,-0.63432 -0.85634,-0.90391 -0.34887,-0.26959 -0.93562,-0.31716 v 6.05777 q 0,0.66604 0.0634,1.14178 0.0634,0.47574 0.23787,0.7929 0.1903,0.31717 0.36474,0.50746 0.17443,0.17444 0.53917,0.28545 0.36473,0.0951 0.65018,0.12686 0.3013,0.0317 0.84048,0.0634 0.23787,0.14273 0.23787,0.55503 0,0.41231 -0.23787,0.55504 -2.60072,-0.0634 -4.93186,-0.0634 -2.41042,0 -5.01114,0.0634 -0.23787,-0.14273 -0.23787,-0.55504 0,-0.4123 0.23787,-0.55503 0.53917,-0.0317 0.82462,-0.0634 0.3013,-0.0317 0.66604,-0.12686 0.36473,-0.11101 0.53917,-0.28545 0.17444,-0.19029 0.34888,-0.50746 0.19029,-0.31716 0.25373,-0.7929 0.0634,-0.47574 0.0634,-1.14178 z m -11.94111,-1.45894 q -0.44403,0 -0.80876,0.1903 -0.34888,0.17444 -0.74533,0.76119 -0.38059,0.57089 -0.65018,1.53823 -0.26959,0.96734 -0.44403,2.66415 -0.17444,1.68095 -0.17444,3.96451 0,0.71361 0,1.15764 0.0159,0.44402 0.0476,1.2845 0.0317,0.84048 0.0951,1.41137 0.0793,0.55503 0.19029,1.30036 0.12687,0.74533 0.33302,1.25278 0.20616,0.4916 0.47574,0.95149 0.26959,0.45988 0.66604,0.69775 0.39645,0.22201 0.88805,0.22201 0.53918,0 0.99906,-0.41231 0.45988,-0.42816 0.87219,-1.42722 0.42817,-0.99906 0.66604,-2.96546 0.25373,-1.98225 0.25373,-4.77327 0,-2.06154 -0.23787,-3.63149 -0.23787,-1.56995 -0.63432,-2.44214 -0.39645,-0.88805 -0.85634,-1.31622 -0.44402,-0.42817 -0.93562,-0.42817 z m -0.15858,18.76008 q -1.72853,0 -3.1399,-0.80877 -1.39551,-0.80876 -2.29941,-2.18841 -0.90391,-1.37965 -1.39551,-3.17161 -0.47574,-1.80781 -0.47574,-3.82179 0,-4.72569 2.10912,-7.42156 2.10912,-2.71173 5.36002,-2.71173 1.04663,0 2.01397,0.28545 0.9832,0.26958 1.95054,0.9832 0.9832,0.69775 1.69681,1.79196 0.71361,1.07834 1.15764,2.82273 0.45988,1.74438 0.45988,3.94865 0,2.22013 -0.47574,4.02795 -0.45988,1.79196 -1.22107,2.94959 -0.74533,1.14178 -1.74439,1.91883 -0.98319,0.76118 -1.98225,1.07834 -0.99906,0.31717 -2.01397,0.31717 z m -13.03532,-4.28168 q 0,0.77705 0.1903,1.33208 0.19029,0.53917 0.44402,0.84047 0.26959,0.28545 0.77705,0.45989 0.50745,0.15858 0.87219,0.20615 0.38059,0.0476 1.06249,0.0793 0.23787,0.14273 0.23787,0.55503 0,0.41231 -0.23787,0.55504 -5.32831,-0.0634 -5.42345,-0.0634 l -5.50275,0.0634 q -0.23787,-0.14273 -0.23787,-0.55504 0,-0.4123 0.23787,-0.55503 0.6819,-0.0317 1.04664,-0.0793 0.38059,-0.0476 0.88805,-0.20615 0.50745,-0.17444 0.76118,-0.45989 0.26959,-0.3013 0.45989,-0.84047 0.19029,-0.55503 0.19029,-1.33208 v -10.16501 q 0,-1.14178 -0.14272,-1.44308 -0.12686,-0.3013 -0.47574,-0.3013 -1.4748,0 -3.37777,0.80876 -0.66603,-0.45989 -0.71361,-1.39551 l 3.45706,-1.39551 q 2.44214,-0.96734 3.56806,-1.4748 0.96734,-0.47574 1.61752,-0.47574 0.55503,0 0.55503,0.55503 -0.25373,1.83954 -0.25373,3.56806 z" />
    </g>
  </g>
</svg>
