<?xml version="1.0" encoding="UTF-8" standalone="no"?>
<!-- Created with Inkscape (http://www.inkscape.org/) -->

<svg
   xmlns:dc="http://purl.org/dc/elements/1.1/"
   xmlns:cc="http://creativecommons.org/ns#"
   xmlns:rdf="http://www.w3.org/1999/02/22-rdf-syntax-ns#"
   xmlns:svg="http://www.w3.org/2000/svg"
   xmlns="http://www.w3.org/2000/svg"
   xmlns:sodipodi="http://sodipodi.sourceforge.net/DTD/sodipodi-0.dtd"
   xmlns:inkscape="http://www.inkscape.org/namespaces/inkscape"
   width="210mm"
   height="297mm"
   viewBox="0 0 210 297"
   version="1.1"
   id="svg8"
   inkscape:version="0.92.3 (2405546, 2018-03-11)"
   sodipodi:docname="cert10m.svg">
  <defs
     id="defs2">
    <marker
       inkscape:stockid="Arrow1Lstart"
       orient="auto"
       refY="0.0"
       refX="0.0"
       id="marker4832"
       style="overflow:visible"
       inkscape:isstock="true">
      <path
         id="path4830"
         d="M 0.0,0.0 L 5.0,-5.0 L -12.5,0.0 L 5.0,5.0 L 0.0,0.0 z "
         style="fill-rule:evenodd;stroke:#ffa800;stroke-width:1pt;stroke-opacity:1;fill:#ffcc00;fill-opacity:1"
         transform="scale(0.8) translate(12.5,0)" />
    </marker>
    <marker
       inkscape:stockid="Arrow1Lstart"
       orient="auto"
       refY="0.0"
       refX="0.0"
       id="Arrow1Lstart"
       style="overflow:visible"
       inkscape:isstock="true">
      <path
         id="path4536"
         d="M 0.0,0.0 L 5.0,-5.0 L -12.5,0.0 L 5.0,5.0 L 0.0,0.0 z "
         style="fill-rule:evenodd;stroke:#ffa800;stroke-width:1pt;stroke-opacity:1;fill:#ffcc00;fill-opacity:1"
         transform="scale(0.8) translate(12.5,0)" />
    </marker>
  </defs>
  <sodipodi:namedview
     id="base"
     pagecolor="#ffffff"
     bordercolor="#666666"
     borderopacity="1.0"
     inkscape:pageopacity="0.0"
     inkscape:pageshadow="2"
     inkscape:zoom="0.5"
     inkscape:cx="148.28249"
     inkscape:cy="677.83959"
     inkscape:document-units="mm"
     inkscape:current-layer="layer1"
     showgrid="false"
     inkscape:window-width="1288"
     inkscape:window-height="725"
     inkscape:window-x="278"
     inkscape:window-y="140"
     inkscape:window-maximized="0" />
  <metadata
     id="metadata5">
    <rdf:RDF>
      <cc:Work
         rdf:about="">
        <dc:format>image/svg+xml</dc:format>
        <dc:type
           rdf:resource="http://purl.org/dc/dcmitype/StillImage" />
        <dc:title />
      </cc:Work>
    </rdf:RDF>
  </metadata>
  <g
     inkscape:label="Layer 1"
     inkscape:groupmode="layer"
     id="layer1">
    <path
       style="fill:#ffa3d9;fill-opacity:1;stroke:#ea0082;stroke-width:5.30000019;stroke-linecap:butt;stroke-linejoin:miter;stroke-miterlimit:4;stroke-dasharray:none;stroke-opacity:1"
       d="m 18.142857,99.437025 c 57.452381,-0.503968 109.559373,3.268375 171.288063,-1.511904 1.00794,23.686509 -0.12228,49.511169 4.09289,75.335829 -61.47671,3.90205 -114.400795,-0.74853 -171.601192,1.01536 1.947314,-23.87735 -2.519841,-49.89286 -3.779761,-74.839285 z"
       id="path5044"
       inkscape:connector-curvature="0"
       sodipodi:nodetypes="ccccc" />
    <g
       aria-label="10M"
       style="font-style:normal;font-variant:normal;font-weight:bold;font-stretch:normal;font-size:36.39279938px;line-height:1.25;font-family:'Linux Libertine G';-inkscape-font-specification:'Linux Libertine G Bold';letter-spacing:0px;word-spacing:0px;fill:#ea0082;fill-opacity:1;stroke:none;stroke-width:0.090982"
       id="text839">
      <path
         id="path32"
         style="font-style:normal;font-variant:normal;font-weight:bold;font-stretch:normal;font-family:'Linux Libertine G';-inkscape-font-specification:'Linux Libertine G Bold';fill:#ea0082;stroke-width:0.090982"
         d="m 85.664349,125.34257 -0.924036,-15.21106 h -0.08885 l -8.174164,19.2626 q -0.195469,0.46202 -0.693027,0.46202 -0.177699,0 -0.426478,-0.14216 -0.231009,-0.12439 -0.302089,-0.31986 l -7.161278,-17.94762 h -0.14216 l -0.959575,13.6473 q -0.08885,0.7641 -0.05331,1.35051 0.05331,0.58641 0.284319,0.99512 0.231009,0.40871 0.746336,0.65748 0.533098,0.23101 1.421594,0.30209 0.159929,0.15993 0.159929,0.62195 0,0.46202 -0.159929,0.62195 -2.16793,-0.0711 -4.140392,-0.0711 -0.977345,0 -3.145276,0.0711 -0.159929,-0.15993 -0.159929,-0.62195 0,-0.46202 0.159929,-0.62195 1.492674,-0.12439 2.025771,-0.81741 0.550868,-0.67526 0.710797,-2.41671 l 1.457134,-14.99782 q 0.07108,-0.74633 0.08885,-1.15504 0.03554,-0.40871 -0.07108,-0.76411 -0.10662,-0.37317 -0.213239,-0.49756 -0.08885,-0.14216 -0.479788,-0.26654 -0.390939,-0.12439 -0.710797,-0.14216 -0.319859,-0.0355 -1.083965,-0.0711 -0.15993,-0.15993 -0.15993,-0.62195 0,-0.46202 0.15993,-0.62195 l 7.463367,0.0711 6.503791,16.15286 h 0.177699 l 6.93027,-16.15286 7.303437,-0.0711 q 0.15993,0.15993 0.15993,0.62195 0,0.46202 -0.15993,0.62195 -0.959575,0.0533 -1.457133,0.19547 -0.497558,0.12438 -0.781877,0.4087 -0.266549,0.28432 -0.284319,0.76411 -0.01777,0.46202 0.01777,1.20835 l 1.101735,15.31768 q 0.05331,0.87072 0.08885,1.2972 0.05331,0.42648 0.177699,0.85296 0.14216,0.42648 0.266549,0.56864 0.12439,0.14215 0.479788,0.28431 0.373168,0.14216 0.710797,0.1777 0.355398,0.0178 1.066195,0.0533 0.159929,0.15993 0.159929,0.62195 0,0.46202 -0.159929,0.62195 -2.416709,-0.0711 -3.962692,-0.0711 -2.665489,0 -6.077314,0.0711 -0.159929,-0.15993 -0.159929,-0.62195 0,-0.46202 0.159929,-0.62195 0.550868,-0.0178 0.781877,-0.0355 0.248779,-0.0178 0.586407,-0.0711 0.355399,-0.0711 0.462018,-0.12439 0.10662,-0.0533 0.266549,-0.231 0.177699,-0.1777 0.195469,-0.33763 0.01777,-0.1777 0.05331,-0.55087 0.03554,-0.37317 0.01777,-0.72857 -0.01777,-0.3554 -0.05331,-0.97734 z M 52.310206,108.90539 q -0.497558,0 -0.906266,0.21324 -0.390939,0.19547 -0.835187,0.85295 -0.426478,0.63972 -0.728566,1.72369 -0.302089,1.08396 -0.497558,2.98534 -0.195469,1.88362 -0.195469,4.44248 0,0.79965 0,1.29721 0.01777,0.49756 0.05331,1.43936 0.03554,0.94181 0.10662,1.58152 0.08885,0.62195 0.213239,1.45714 0.142159,0.83518 0.373168,1.40382 0.231009,0.55087 0.533098,1.0662 0.302089,0.51533 0.746337,0.78187 0.444248,0.24878 0.995115,0.24878 0.604178,0 1.119505,-0.46201 0.515328,-0.47979 0.977346,-1.5993 0.479788,-1.1195 0.746337,-3.32297 0.284319,-2.22124 0.284319,-5.34875 0,-2.31009 -0.266549,-4.06931 -0.266549,-1.75922 -0.710797,-2.73657 -0.444248,-0.99512 -0.959576,-1.4749 -0.497558,-0.47979 -1.048426,-0.47979 z m -0.1777,21.02182 q -1.936921,0 -3.518444,-0.90627 -1.563753,-0.90627 -2.576639,-2.45225 -1.012885,-1.54598 -1.563753,-3.55398 -0.533097,-2.02577 -0.533097,-4.28255 0,-5.29544 2.363399,-8.31633 2.3634,-3.03865 6.006234,-3.03865 1.172815,0 2.25678,0.31985 1.101735,0.30209 2.1857,1.10174 1.101735,0.78188 1.901382,2.008 0.799646,1.20836 1.297204,3.16305 0.515328,1.95469 0.515328,4.42471 0,2.48779 -0.533098,4.51356 -0.515328,2.008 -1.368284,3.3052 -0.835186,1.27944 -1.954691,2.15016 -1.101735,0.85296 -2.22124,1.20836 -1.119506,0.3554 -2.256781,0.3554 z M 37.52563,125.12933 q 0,0.87072 0.213239,1.49267 0.213239,0.60418 0.497558,0.94181 0.302089,0.31986 0.870726,0.51532 0.568638,0.1777 0.977346,0.23101 0.426478,0.0533 1.190585,0.0889 0.266548,0.15993 0.266548,0.62195 0,0.46202 -0.266548,0.62195 -5.970694,-0.0711 -6.077314,-0.0711 l -6.166162,0.0711 q -0.266549,-0.15993 -0.266549,-0.62195 0,-0.46202 0.266549,-0.62195 0.764106,-0.0355 1.172814,-0.0889 0.426479,-0.0533 0.995116,-0.23101 0.568638,-0.19546 0.852956,-0.51532 0.302089,-0.33763 0.515328,-0.94181 0.213239,-0.62195 0.213239,-1.49267 v -11.39052 q 0,-1.27944 -0.159929,-1.61707 -0.14216,-0.33762 -0.533098,-0.33762 -1.652603,0 -3.784993,0.90626 -0.746337,-0.51533 -0.799647,-1.56375 l 3.873843,-1.56375 q 2.736568,-1.08397 3.998233,-1.65261 1.083965,-0.53309 1.812532,-0.53309 0.621947,0 0.621947,0.62194 -0.284319,2.06131 -0.284319,3.99824 z" />
    </g>
    <circle
       style="fill:#ffffff;stroke-width:0.16692095"
       id="path12"
       cx="74.73877"
       cy="145.27553"
       r="16.215179" />
    <circle
       style="fill:#1a1a1a;stroke-width:0.12825565"
       id="path31"
       cx="76.254509"
       cy="141.70461"
       r="9.8940086" />
    <circle
       style="fill:#ffffff;stroke-width:0.16692095"
       id="path12-8"
       cx="151.34167"
       cy="121.31667"
       r="16.215179" />
    <circle
       style="fill:#1a1a1a;stroke-width:0.12825565"
       id="path31-1"
       cx="148.88866"
       cy="124.88951"
       r="9.8940086" />
    <g
       aria-label="10M"
       style="font-style:normal;font-variant:normal;font-weight:bold;font-stretch:normal;font-size:36.50603104px;line-height:1.25;font-family:'Linux Libertine G';-inkscape-font-specification:'Linux Libertine G Bold';letter-spacing:0px;word-spacing:0px;fill:#ea0082;fill-opacity:1;stroke:none;stroke-width:0.09126507"
       id="text839-9">
      <path
         id="path24"
         style="font-style:normal;font-variant:normal;font-weight:bold;font-stretch:normal;font-family:'Linux Libertine G';-inkscape-font-specification:'Linux Libertine G Bold';fill:#ea0082;stroke-width:0.09126507"
         d="m 177.65298,162.56668 -0.92692,-15.25838 h -0.0891 l -8.1996,19.32253 q -0.19608,0.46346 -0.69518,0.46346 -0.17825,0 -0.42781,-0.14261 -0.23172,-0.12477 -0.30303,-0.32085 l -7.18356,-18.00346 h -0.1426 l -0.96256,13.68976 q -0.0891,0.76648 -0.0535,1.35471 0.0535,0.58824 0.2852,0.99822 0.23173,0.40998 0.74866,0.65953 0.53475,0.23173 1.42602,0.30303 0.16042,0.16043 0.16042,0.62388 0,0.46346 -0.16042,0.62388 -2.17468,-0.0713 -4.15328,-0.0713 -0.98039,0 -3.15506,0.0713 -0.16043,-0.16042 -0.16043,-0.62388 0,-0.46345 0.16043,-0.62388 1.49732,-0.12478 2.03207,-0.81996 0.55258,-0.67736 0.71301,-2.42423 l 1.46167,-15.04448 q 0.0713,-0.74866 0.0891,-1.15864 0.0357,-0.40998 -0.0713,-0.76648 -0.10695,-0.37433 -0.2139,-0.49911 -0.0891,-0.1426 -0.48128,-0.26737 -0.39215,-0.12478 -0.71301,-0.14261 -0.32085,-0.0357 -1.08734,-0.0713 -0.16042,-0.16042 -0.16042,-0.62388 0,-0.46345 0.16042,-0.62388 l 7.48659,0.0713 6.52403,16.20312 h 0.17825 l 6.95183,-16.20312 7.32617,-0.0713 q 0.16042,0.16043 0.16042,0.62388 0,0.46346 -0.16042,0.62388 -0.96257,0.0535 -1.46167,0.19608 -0.49911,0.12478 -0.78431,0.40998 -0.26738,0.2852 -0.2852,0.76648 -0.0178,0.46346 0.0178,1.21212 l 1.10516,15.36533 q 0.0535,0.87344 0.0891,1.30124 0.0535,0.42781 0.17825,0.85561 0.1426,0.42781 0.26738,0.57041 0.12478,0.1426 0.48128,0.2852 0.37433,0.1426 0.71301,0.17825 0.3565,0.0178 1.06951,0.0535 0.16043,0.16043 0.16043,0.62388 0,0.46346 -0.16043,0.62388 -2.42423,-0.0713 -3.97502,-0.0713 -2.67378,0 -6.09622,0.0713 -0.16043,-0.16042 -0.16043,-0.62388 0,-0.46345 0.16043,-0.62388 0.55258,-0.0178 0.78431,-0.0357 0.24955,-0.0178 0.58823,-0.0713 0.3565,-0.0713 0.46345,-0.12478 0.10696,-0.0535 0.26738,-0.23173 0.17825,-0.17825 0.19608,-0.33868 0.0178,-0.17825 0.0535,-0.55258 0.0357,-0.37433 0.0178,-0.73083 -0.0178,-0.35651 -0.0535,-0.98039 z m -33.45792,-16.48832 q -0.49911,0 -0.90909,0.2139 -0.39215,0.19608 -0.83778,0.85561 -0.42781,0.64171 -0.73084,1.72905 -0.30303,1.08734 -0.4991,2.99464 -0.19608,1.88947 -0.19608,4.4563 0,0.80213 0,1.30124 0.0178,0.4991 0.0535,1.44384 0.0357,0.94474 0.10696,1.58644 0.0891,0.62389 0.2139,1.46167 0.1426,0.83779 0.37433,1.40819 0.23172,0.55258 0.53475,1.06952 0.30303,0.51693 0.74866,0.78431 0.44563,0.24955 0.99821,0.24955 0.60606,0 1.12299,-0.46346 0.51693,-0.48128 0.98039,-1.60427 0.48128,-1.12298 0.74866,-3.33331 0.2852,-2.22815 0.2852,-5.36539 0,-2.31728 -0.26738,-4.08197 -0.26738,-1.7647 -0.71301,-2.74508 -0.44563,-0.99822 -0.96256,-1.4795 -0.4991,-0.48128 -1.05168,-0.48128 z m -0.17826,21.08723 q -1.94294,0 -3.52939,-0.90909 -1.56862,-0.90909 -2.58465,-2.45988 -1.01604,-1.55079 -1.56862,-3.56504 -0.53476,-2.03207 -0.53476,-4.29588 0,-5.31191 2.37075,-8.34219 2.37076,-3.04812 6.02493,-3.04812 1.17646,0 2.2638,0.32086 1.10516,0.30303 2.1925,1.10516 1.10516,0.78431 1.9073,2.01425 0.80213,1.21211 1.30124,3.17289 0.51693,1.96077 0.51693,4.43847 0,2.49553 -0.53476,4.52761 -0.51693,2.01425 -1.37254,3.31549 -0.83779,1.28341 -1.96077,2.15685 -1.10517,0.85561 -2.22815,1.21211 -1.12299,0.35651 -2.26381,0.35651 z m -14.65232,-4.81281 q 0,0.87343 0.2139,1.49732 0.21391,0.60605 0.49911,0.94473 0.30303,0.32086 0.87343,0.51693 0.57041,0.17826 0.98039,0.23173 0.42781,0.0535 1.19429,0.0891 0.26738,0.16043 0.26738,0.62388 0,0.46346 -0.26738,0.62388 -5.98927,-0.0713 -6.09622,-0.0713 l -6.18535,0.0713 q -0.26738,-0.16042 -0.26738,-0.62388 0,-0.46345 0.26738,-0.62388 0.76648,-0.0357 1.17646,-0.0891 0.42781,-0.0535 0.99822,-0.23173 0.5704,-0.19607 0.85561,-0.51693 0.30302,-0.33868 0.51693,-0.94473 0.2139,-0.62389 0.2139,-1.49732 v -11.42596 q 0,-1.28342 -0.16043,-1.62209 -0.1426,-0.33868 -0.53475,-0.33868 -1.65775,0 -3.79677,0.90908 -0.74866,-0.51693 -0.80214,-1.56862 l 3.8859,-1.56861 q 2.74508,-1.08734 4.01067,-1.65775 1.08734,-0.53476 1.81817,-0.53476 0.62388,0 0.62388,0.62389 -0.2852,2.06772 -0.2852,4.01067 z" />
    </g>
  </g>
</svg>
