<?xml version="1.0" encoding="UTF-8" standalone="no"?>
<!-- Created with Inkscape (http://www.inkscape.org/) -->

<svg
   xmlns:dc="http://purl.org/dc/elements/1.1/"
   xmlns:cc="http://creativecommons.org/ns#"
   xmlns:rdf="http://www.w3.org/1999/02/22-rdf-syntax-ns#"
   xmlns:svg="http://www.w3.org/2000/svg"
   xmlns="http://www.w3.org/2000/svg"
   xmlns:sodipodi="http://sodipodi.sourceforge.net/DTD/sodipodi-0.dtd"
   xmlns:inkscape="http://www.inkscape.org/namespaces/inkscape"
   width="210mm"
   height="297mm"
   viewBox="0 0 210 297"
   version="1.1"
   id="svg8"
   inkscape:version="0.92.3 (2405546, 2018-03-11)"
   sodipodi:docname="cert1k.svg">
  <defs
     id="defs2">
    <marker
       inkscape:stockid="Arrow1Lstart"
       orient="auto"
       refY="0.0"
       refX="0.0"
       id="marker4832"
       style="overflow:visible"
       inkscape:isstock="true">
      <path
         id="path4830"
         d="M 0.0,0.0 L 5.0,-5.0 L -12.5,0.0 L 5.0,5.0 L 0.0,0.0 z "
         style="fill-rule:evenodd;stroke:#ffa800;stroke-width:1pt;stroke-opacity:1;fill:#ffcc00;fill-opacity:1"
         transform="scale(0.8) translate(12.5,0)" />
    </marker>
    <marker
       inkscape:stockid="Arrow1Lstart"
       orient="auto"
       refY="0.0"
       refX="0.0"
       id="Arrow1Lstart"
       style="overflow:visible"
       inkscape:isstock="true">
      <path
         id="path4536"
         d="M 0.0,0.0 L 5.0,-5.0 L -12.5,0.0 L 5.0,5.0 L 0.0,0.0 z "
         style="fill-rule:evenodd;stroke:#ffa800;stroke-width:1pt;stroke-opacity:1;fill:#ffcc00;fill-opacity:1"
         transform="scale(0.8) translate(12.5,0)" />
    </marker>
  </defs>
  <sodipodi:namedview
     id="base"
     pagecolor="#ffffff"
     bordercolor="#666666"
     borderopacity="1.0"
     inkscape:pageopacity="0.0"
     inkscape:pageshadow="2"
     inkscape:zoom="0.5"
     inkscape:cx="6.28249"
     inkscape:cy="823.83959"
     inkscape:document-units="mm"
     inkscape:current-layer="layer1"
     showgrid="false"
     inkscape:window-width="1288"
     inkscape:window-height="725"
     inkscape:window-x="278"
     inkscape:window-y="140"
     inkscape:window-maximized="0" />
  <metadata
     id="metadata5">
    <rdf:RDF>
      <cc:Work
         rdf:about="">
        <dc:format>image/svg+xml</dc:format>
        <dc:type
           rdf:resource="http://purl.org/dc/dcmitype/StillImage" />
        <dc:title />
      </cc:Work>
    </rdf:RDF>
  </metadata>
  <g
     inkscape:label="Layer 1"
     inkscape:groupmode="layer"
     id="layer1">
    <path
       style="fill:#00dbf8;fill-opacity:1;stroke:#0067a4;stroke-width:5.30000019;stroke-linecap:butt;stroke-linejoin:miter;stroke-miterlimit:4;stroke-dasharray:none;stroke-opacity:1"
       d="m 18.142857,99.437025 c 57.452381,-0.503968 109.559373,3.268375 171.288063,-1.511904 1.00794,23.686509 -0.12228,49.511169 4.09289,75.335829 -61.47671,3.90205 -114.400795,-0.74853 -171.601192,1.01536 1.947314,-23.87735 -2.519841,-49.89286 -3.779761,-74.839285 z"
       id="path5044"
       inkscape:connector-curvature="0"
       sodipodi:nodetypes="ccccc" />
    <g
       aria-label="1K"
       style="font-style:normal;font-variant:normal;font-weight:bold;font-stretch:normal;font-size:44.30063629px;line-height:1.25;font-family:'Linux Libertine G';-inkscape-font-specification:'Linux Libertine G Bold';letter-spacing:0px;word-spacing:0px;fill:#000000;fill-opacity:1;stroke:none;stroke-width:0.11075159"
       id="text839">
      <path
         id="path22"
         style="font-style:normal;font-variant:normal;font-weight:bold;font-stretch:normal;font-family:'Linux Libertine G';-inkscape-font-specification:'Linux Libertine G Bold';fill:#0067a4;stroke-width:0.11075159"
         d="m 50.197623,110.46266 q 0,-0.90851 -0.08653,-1.55745 -0.08652,-0.64893 -0.346098,-1.08156 -0.237943,-0.43262 -0.475886,-0.67056 -0.237943,-0.25958 -0.73546,-0.38936 -0.497517,-0.15142 -0.908509,-0.19469 -0.389361,-0.0433 -1.124821,-0.0865 -0.324467,-0.19468 -0.324467,-0.75709 0,-0.56241 0.324467,-0.75709 3.547512,0.0865 6.83545,0.0865 3.179782,0 6.727294,-0.0865 0.324467,0.19468 0.324467,0.75709 0,0.56241 -0.324467,0.75709 -0.73546,0.0433 -1.146452,0.0865 -0.389361,0.0433 -0.886878,0.19469 -0.497517,0.12978 -0.73546,0.38936 -0.237943,0.23794 -0.497517,0.67056 -0.237943,0.43263 -0.324468,1.08156 -0.08652,0.64894 -0.08652,1.55745 v 7.54927 q 0.995034,-0.17305 2.03333,-0.88687 1.059927,-0.71383 3.114888,-2.55248 3.352832,-2.79042 4.737227,-4.19645 3.482618,-3.54751 -0.216312,-3.89361 -0.194681,-0.19468 -0.194681,-0.75709 0,-0.56241 0.194681,-0.75709 4.153184,0.0865 5.451055,0.0865 0.04326,0 4.196447,-0.0865 0.19468,0.19468 0.19468,0.75709 0,0.56241 -0.19468,0.75709 -0.800354,0.10816 -1.557445,0.36773 -0.757091,0.23794 -1.29787,0.49752 -0.519148,0.25957 -1.254608,0.82198 -0.713828,0.54078 -1.103189,0.88688 l -1.211346,1.10319 -1.276239,1.14645 -4.823751,4.28297 q -0.19468,0.17305 -0.324467,0.3461 -0.129787,0.15142 -0.17305,0.30284 -0.04326,0.15142 -0.06489,0.23794 0,0.0865 0,0.23794 0.02163,0.12979 0.02163,0.17305 0,0.411 1.319501,1.99007 l 9.712396,11.46452 q 0.800353,0.93014 1.579075,1.3195 0.778722,0.38936 1.881912,0.54078 0.19468,0.19468 0.19468,0.75709 0,0.56241 -0.19468,0.75709 -4.153185,-0.0865 -4.931907,-0.0865 -3.093257,0 -4.867013,0.0865 -0.17305,0 -0.216312,-0.25957 -0.151418,-1.23298 -1.600706,-3.11489 l -6.684032,-8.71736 q -0.670566,-0.86525 -1.168083,-1.23298 -0.475886,-0.36773 -1.276239,-0.43262 v 8.26311 q 0,0.90851 0.08652,1.55744 0.08653,0.64894 0.324468,1.08156 0.259574,0.43262 0.497517,0.6922 0.237943,0.23794 0.73546,0.38936 0.497517,0.12978 0.886878,0.17305 0.410992,0.0433 1.146452,0.0865 0.324467,0.19468 0.324467,0.75709 0,0.56241 -0.324467,0.75709 -3.547512,-0.0865 -6.727294,-0.0865 -3.287938,0 -6.83545,0.0865 -0.324467,-0.19468 -0.324467,-0.75709 0,-0.56241 0.324467,-0.75709 0.73546,-0.0433 1.124821,-0.0865 0.410992,-0.0433 0.908509,-0.17305 0.497517,-0.15142 0.73546,-0.38936 0.237943,-0.25958 0.475886,-0.6922 0.259574,-0.43262 0.346098,-1.08156 0.08653,-0.64893 0.08653,-1.55744 z m -11.529414,17.75919 q 0,1.05992 0.259574,1.81701 0.259574,0.73546 0.605673,1.14646 0.36773,0.38936 1.059927,0.6273 0.692198,0.21631 1.189715,0.28121 0.519148,0.0649 1.449288,0.10815 0.324468,0.19468 0.324468,0.75709 0,0.56241 -0.324468,0.75709 -7.268073,-0.0865 -7.39786,-0.0865 l -7.506016,0.0865 q -0.324468,-0.19468 -0.324468,-0.75709 0,-0.56241 0.324468,-0.75709 0.93014,-0.0433 1.427657,-0.10815 0.519148,-0.0649 1.211346,-0.28121 0.692197,-0.23794 1.038296,-0.6273 0.36773,-0.411 0.627304,-1.14646 0.259574,-0.75709 0.259574,-1.81701 v -13.86558 q 0,-1.55745 -0.194681,-1.96844 -0.173049,-0.41099 -0.648935,-0.41099 -2.011699,0 -4.607439,1.10319 -0.908509,-0.62731 -0.973403,-1.90355 l 4.715595,-1.90354 q 3.331201,-1.3195 4.867014,-2.0117 1.319501,-0.64893 2.206379,-0.64893 0.757091,0 0.757091,0.75709 -0.346099,2.50921 -0.346099,4.86701 z" />
    </g>
    <circle
       style="fill:#ffffff;stroke-width:0.16692095"
       id="path12"
       cx="83.205437"
       cy="137.86719"
       r="16.215179" />
    <circle
       style="fill:#1a1a1a;stroke-width:0.12825565"
       id="path31"
       cx="84.721176"
       cy="134.29626"
       r="9.8940086" />
    <circle
       style="fill:#ffffff;stroke-width:0.16692095"
       id="path12-8"
       cx="141.28751"
       cy="122.90417"
       r="16.215179" />
    <circle
       style="fill:#1a1a1a;stroke-width:0.12825565"
       id="path31-1"
       cx="138.83449"
       cy="126.47701"
       r="9.8940086" />
    <g
       aria-label="1K"
       style="font-style:normal;font-variant:normal;font-weight:bold;font-stretch:normal;font-size:43.48518372px;line-height:1.25;font-family:'Linux Libertine G';-inkscape-font-specification:'Linux Libertine G Bold';letter-spacing:0px;word-spacing:0px;fill:#000000;fill-opacity:1;stroke:none;stroke-width:0.10871296"
       id="text839-9">
      <path
         id="path28"
         style="font-style:normal;font-variant:normal;font-weight:bold;font-stretch:normal;font-family:'Linux Libertine G';-inkscape-font-specification:'Linux Libertine G Bold';fill:#0067a4;stroke-width:0.10871296"
         d="m 161.14492,145.93803 q 0,-0.89179 -0.0849,-1.52878 -0.0849,-0.63699 -0.33973,-1.06165 -0.23356,-0.42466 -0.46712,-0.65822 -0.23356,-0.25479 -0.72192,-0.38219 -0.48836,-0.14863 -0.89179,-0.1911 -0.38219,-0.0425 -1.10412,-0.0849 -0.31849,-0.1911 -0.31849,-0.74316 0,-0.55205 0.31849,-0.74315 3.48222,0.0849 6.70963,0.0849 3.12125,0 6.60347,-0.0849 0.31849,0.1911 0.31849,0.74315 0,0.55206 -0.31849,0.74316 -0.72193,0.0425 -1.12535,0.0849 -0.3822,0.0425 -0.87056,0.1911 -0.48836,0.1274 -0.72192,0.38219 -0.23356,0.23356 -0.48836,0.65822 -0.23356,0.42466 -0.31849,1.06165 -0.0849,0.63699 -0.0849,1.52878 v 7.41032 q 0.97671,-0.16987 1.9959,-0.87056 1.04041,-0.70068 3.05755,-2.50549 3.29111,-2.73906 4.65003,-4.1192 3.41851,-3.48221 -0.21233,-3.82194 -0.1911,-0.1911 -0.1911,-0.74316 0,-0.55205 0.1911,-0.74315 4.07673,0.0849 5.35071,0.0849 0.0425,0 4.1192,-0.0849 0.1911,0.1911 0.1911,0.74315 0,0.55206 -0.1911,0.74316 -0.78562,0.10616 -1.52877,0.36096 -0.74316,0.23356 -1.27398,0.48836 -0.50959,0.25479 -1.23152,0.80685 -0.70068,0.53083 -1.08288,0.87056 l -1.18905,1.08288 -1.25274,1.12535 -4.73496,4.20413 q -0.1911,0.16987 -0.3185,0.33973 -0.1274,0.14863 -0.16986,0.29726 -0.0425,0.14863 -0.0637,0.23356 0,0.0849 0,0.23357 0.0212,0.1274 0.0212,0.16986 0,0.40343 1.29522,1.95344 l 9.53361,11.25349 q 0.78562,0.91302 1.55001,1.29521 0.76439,0.38219 1.84727,0.53083 0.1911,0.19109 0.1911,0.74315 0,0.55206 -0.1911,0.74316 -4.07673,-0.0849 -4.84112,-0.0849 -3.03632,0 -4.77743,0.0849 -0.16986,0 -0.21233,-0.2548 -0.14863,-1.21028 -1.57124,-3.05755 l -6.561,-8.5569 q -0.65822,-0.84932 -1.14658,-1.21028 -0.46712,-0.36096 -1.25274,-0.42466 v 8.111 q 0,0.89179 0.0849,1.52878 0.0849,0.63699 0.31849,1.06165 0.2548,0.42466 0.48836,0.67946 0.23356,0.23356 0.72192,0.38219 0.48836,0.1274 0.87056,0.16986 0.40342,0.0425 1.12535,0.0849 0.31849,0.19109 0.31849,0.74315 0,0.55206 -0.31849,0.74316 -3.48222,-0.0849 -6.60347,-0.0849 -3.22741,0 -6.70963,0.0849 -0.31849,-0.1911 -0.31849,-0.74316 0,-0.55206 0.31849,-0.74315 0.72193,-0.0425 1.10412,-0.0849 0.40343,-0.0425 0.89179,-0.16986 0.48836,-0.14863 0.72192,-0.38219 0.23356,-0.2548 0.46712,-0.67946 0.2548,-0.42466 0.33973,-1.06165 0.0849,-0.63699 0.0849,-1.52878 z m -11.31718,17.43229 q 0,1.04042 0.25479,1.78358 0.2548,0.72192 0.59453,1.12534 0.36096,0.3822 1.04041,0.61576 0.67946,0.21233 1.16782,0.27603 0.50959,0.0637 1.42261,0.10617 0.31849,0.19109 0.31849,0.74315 0,0.55206 -0.31849,0.74316 -7.13429,-0.0849 -7.26169,-0.0849 l -7.36785,0.0849 q -0.31849,-0.1911 -0.31849,-0.74316 0,-0.55206 0.31849,-0.74315 0.91302,-0.0425 1.40138,-0.10617 0.50959,-0.0637 1.18905,-0.27603 0.67945,-0.23356 1.01918,-0.61576 0.36096,-0.40342 0.61576,-1.12534 0.25479,-0.74316 0.25479,-1.78358 v -13.61035 q 0,-1.52878 -0.19109,-1.9322 -0.16987,-0.40343 -0.63699,-0.40343 -1.97467,0 -4.52263,1.08288 -0.89179,-0.61575 -0.95549,-1.8685 l 4.6288,-1.8685 q 3.26988,-1.29522 4.77742,-1.97467 1.29522,-0.63699 2.16577,-0.63699 0.74315,0 0.74315,0.74315 -0.33972,2.46303 -0.33972,4.77743 z" />
    </g>
  </g>
</svg>
