<?xml version="1.0" encoding="UTF-8" standalone="no"?>
<!-- Created with Inkscape (http://www.inkscape.org/) -->

<svg
   xmlns:dc="http://purl.org/dc/elements/1.1/"
   xmlns:cc="http://creativecommons.org/ns#"
   xmlns:rdf="http://www.w3.org/1999/02/22-rdf-syntax-ns#"
   xmlns:svg="http://www.w3.org/2000/svg"
   xmlns="http://www.w3.org/2000/svg"
   xmlns:sodipodi="http://sodipodi.sourceforge.net/DTD/sodipodi-0.dtd"
   xmlns:inkscape="http://www.inkscape.org/namespaces/inkscape"
   width="210mm"
   height="297mm"
   viewBox="0 0 210 297"
   version="1.1"
   id="svg8"
   inkscape:version="0.92.3 (2405546, 2018-03-11)"
   sodipodi:docname="cert100k.svg">
  <defs
     id="defs2">
    <marker
       inkscape:stockid="Arrow1Lstart"
       orient="auto"
       refY="0.0"
       refX="0.0"
       id="marker4832"
       style="overflow:visible"
       inkscape:isstock="true">
      <path
         id="path4830"
         d="M 0.0,0.0 L 5.0,-5.0 L -12.5,0.0 L 5.0,5.0 L 0.0,0.0 z "
         style="fill-rule:evenodd;stroke:#ffa800;stroke-width:1pt;stroke-opacity:1;fill:#ffcc00;fill-opacity:1"
         transform="scale(0.8) translate(12.5,0)" />
    </marker>
    <marker
       inkscape:stockid="Arrow1Lstart"
       orient="auto"
       refY="0.0"
       refX="0.0"
       id="Arrow1Lstart"
       style="overflow:visible"
       inkscape:isstock="true">
      <path
         id="path4536"
         d="M 0.0,0.0 L 5.0,-5.0 L -12.5,0.0 L 5.0,5.0 L 0.0,0.0 z "
         style="fill-rule:evenodd;stroke:#ffa800;stroke-width:1pt;stroke-opacity:1;fill:#ffcc00;fill-opacity:1"
         transform="scale(0.8) translate(12.5,0)" />
    </marker>
  </defs>
  <sodipodi:namedview
     id="base"
     pagecolor="#ffffff"
     bordercolor="#666666"
     borderopacity="1.0"
     inkscape:pageopacity="0.0"
     inkscape:pageshadow="2"
     inkscape:zoom="0.5"
     inkscape:cx="148.28249"
     inkscape:cy="677.83959"
     inkscape:document-units="mm"
     inkscape:current-layer="layer1"
     showgrid="false"
     inkscape:window-width="1288"
     inkscape:window-height="725"
     inkscape:window-x="278"
     inkscape:window-y="140"
     inkscape:window-maximized="0" />
  <metadata
     id="metadata5">
    <rdf:RDF>
      <cc:Work
         rdf:about="">
        <dc:format>image/svg+xml</dc:format>
        <dc:type
           rdf:resource="http://purl.org/dc/dcmitype/StillImage" />
        <dc:title />
      </cc:Work>
    </rdf:RDF>
  </metadata>
  <g
     inkscape:label="Layer 1"
     inkscape:groupmode="layer"
     id="layer1">
    <path
       style="fill:#20c9ff;fill-opacity:1;stroke:#003dbb;stroke-width:5.30000019;stroke-linecap:butt;stroke-linejoin:miter;stroke-miterlimit:4;stroke-dasharray:none;stroke-opacity:1"
       d="m 18.142857,99.437025 c 57.452381,-0.503968 109.559373,3.268375 171.288063,-1.511904 1.00794,23.686509 -0.12228,49.511169 4.09289,75.335829 -61.47671,3.90205 -114.400795,-0.74853 -171.601192,1.01536 1.947314,-23.87735 -2.519841,-49.89286 -3.779761,-74.839285 z"
       id="path5044"
       inkscape:connector-curvature="0"
       sodipodi:nodetypes="ccccc" />
    <g
       aria-label="100K"
       style="font-style:normal;font-variant:normal;font-weight:bold;font-stretch:normal;font-size:33.71751404px;line-height:1.25;font-family:'Linux Libertine G';-inkscape-font-specification:'Linux Libertine G Bold';letter-spacing:0px;word-spacing:0px;fill:#003dbb;fill-opacity:1;stroke:none;stroke-width:0.08429379"
       id="text839">
      <path
         id="path36"
         style="font-style:normal;font-variant:normal;font-weight:bold;font-stretch:normal;font-family:'Linux Libertine G';-inkscape-font-specification:'Linux Libertine G Bold';fill:#003dbb;stroke-width:0.08429379"
         d="m 78.615971,109.67927 q 0,-0.69148 -0.06585,-1.18539 -0.06585,-0.4939 -0.263418,-0.82318 -0.1811,-0.32927 -0.3622,-0.51037 -0.1811,-0.19756 -0.559764,-0.29634 -0.378663,-0.11525 -0.691472,-0.14818 -0.296346,-0.0329 -0.856109,-0.0659 -0.246954,-0.14817 -0.246954,-0.57623 0,-0.42805 0.246954,-0.57623 2.700035,0.0659 5.202507,0.0659 2.420154,0 5.120189,-0.0659 0.246954,0.14818 0.246954,0.57623 0,0.42806 -0.246954,0.57623 -0.559763,0.0329 -0.872572,0.0659 -0.296346,0.0329 -0.675009,0.14818 -0.378664,0.0988 -0.559764,0.29634 -0.1811,0.1811 -0.378663,0.51037 -0.1811,0.32928 -0.246955,0.82318 -0.06585,0.49391 -0.06585,1.18539 v 5.7458 q 0.757327,-0.13171 1.547581,-0.67501 0.806718,-0.5433 2.370763,-1.9427 2.551862,-2.12381 3.605535,-3.19395 2.650644,-2.70003 -0.164637,-2.96345 -0.148172,-0.14817 -0.148172,-0.57623 0,-0.42805 0.148172,-0.57623 3.161017,0.0659 4.148835,0.0659 0.03293,0 3.193944,-0.0659 0.148173,0.14818 0.148173,0.57623 0,0.42806 -0.148173,0.57623 -0.609154,0.0823 -1.185381,0.27988 -0.576227,0.1811 -0.987818,0.37866 -0.395127,0.19757 -0.95489,0.62562 -0.5433,0.41159 -0.839645,0.67501 l -0.921964,0.83964 -0.971354,0.87258 -3.671389,3.2598 q -0.148173,0.13171 -0.246955,0.26341 -0.09878,0.11525 -0.131709,0.23049 -0.03293,0.11525 -0.04939,0.1811 0,0.0659 0,0.1811 0.01646,0.0988 0.01646,0.13171 0,0.31281 1.004281,1.51466 l 7.39217,8.72572 q 0.609155,0.70794 1.201845,1.00428 0.592691,0.29635 1.432336,0.41159 0.148173,0.14818 0.148173,0.57623 0,0.42806 -0.148173,0.57623 -3.161017,-0.0659 -3.753708,-0.0659 -2.354299,0 -3.704316,0.0659 -0.131709,0 -0.164637,-0.19757 -0.115245,-0.93842 -1.218308,-2.37076 l -5.087262,-6.63484 q -0.510372,-0.65855 -0.889036,-0.93843 -0.3622,-0.27988 -0.971354,-0.32927 v 6.28911 q 0,0.69147 0.06585,1.18538 0.06585,0.49391 0.246955,0.82318 0.197563,0.32927 0.378663,0.52683 0.1811,0.1811 0.559764,0.29635 0.378663,0.0988 0.675009,0.13171 0.312809,0.0329 0.872572,0.0658 0.246954,0.14818 0.246954,0.57623 0,0.42806 -0.246954,0.57623 -2.700035,-0.0659 -5.120189,-0.0659 -2.502472,0 -5.202507,0.0659 -0.246954,-0.14817 -0.246954,-0.57623 0,-0.42805 0.246954,-0.57623 0.559763,-0.0329 0.856109,-0.0658 0.312809,-0.0329 0.691472,-0.13171 0.378664,-0.11525 0.559764,-0.29635 0.1811,-0.19756 0.3622,-0.52683 0.197563,-0.32927 0.263418,-0.82318 0.06585,-0.49391 0.06585,-1.18538 z M 66.21886,108.16461 q -0.460982,0 -0.839645,0.19757 -0.3622,0.1811 -0.773791,0.79025 -0.395127,0.59269 -0.675009,1.59697 -0.279881,1.00428 -0.460981,2.76589 -0.1811,1.74515 -0.1811,4.11591 0,0.74086 0,1.20184 0.01646,0.46099 0.04939,1.33356 0.03293,0.87257 0.09878,1.46526 0.08232,0.57623 0.197563,1.35002 0.131709,0.77379 0.345736,1.30063 0.214028,0.51037 0.493909,0.98781 0.279882,0.47745 0.691473,0.7244 0.41159,0.23049 0.921963,0.23049 0.559763,0 1.037209,-0.42805 0.477445,-0.44452 0.905499,-1.48173 0.444518,-1.03721 0.691473,-3.0787 0.263418,-2.05795 0.263418,-4.95555 0,-2.14027 -0.246955,-3.77017 -0.246954,-1.6299 -0.658545,-2.5354 -0.411591,-0.92196 -0.889036,-1.36648 -0.460981,-0.44452 -0.971354,-0.44452 z m -0.164636,19.47648 q -1.794536,0 -3.259799,-0.83965 -1.448799,-0.83964 -2.387226,-2.27198 -0.938427,-1.43234 -1.4488,-3.29273 -0.493909,-1.87685 -0.493909,-3.96773 0,-4.90616 2.189663,-7.70498 2.189663,-2.81528 5.564707,-2.81528 1.0866,0 2.090881,0.29634 1.020745,0.27989 2.025026,1.02075 1.020746,0.7244 1.761609,1.86039 0.740863,1.11953 1.201845,2.93053 0.477445,1.811 0.477445,4.09944 0,2.30491 -0.493909,4.18176 -0.477445,1.86039 -1.267699,3.06224 -0.773791,1.18538 -1.811,1.9921 -1.020745,0.79025 -2.057953,1.11952 -1.037209,0.32928 -2.090881,0.32928 z M 48.899122,108.16461 q -0.460982,0 -0.839646,0.19757 -0.362199,0.1811 -0.77379,0.79025 -0.395127,0.59269 -0.675009,1.59697 -0.279882,1.00428 -0.460982,2.76589 -0.1811,1.74515 -0.1811,4.11591 0,0.74086 0,1.20184 0.01646,0.46099 0.04939,1.33356 0.03293,0.87257 0.09878,1.46526 0.08232,0.57623 0.197564,1.35002 0.131709,0.77379 0.345736,1.30063 0.214027,0.51037 0.493909,0.98781 0.279882,0.47745 0.691472,0.7244 0.411591,0.23049 0.921964,0.23049 0.559763,0 1.037208,-0.42805 0.477446,-0.44452 0.9055,-1.48173 0.444518,-1.03721 0.691472,-3.0787 0.263418,-2.05795 0.263418,-4.95555 0,-2.14027 -0.246954,-3.77017 -0.246954,-1.6299 -0.658545,-2.5354 -0.411591,-0.92196 -0.889036,-1.36648 -0.460982,-0.44452 -0.971354,-0.44452 z m -0.164637,19.47648 q -1.794535,0 -3.259798,-0.83965 -1.4488,-0.83964 -2.387227,-2.27198 -0.938427,-1.43234 -1.448799,-3.29273 -0.493909,-1.87685 -0.493909,-3.96773 0,-4.90616 2.189663,-7.70498 2.189662,-2.81528 5.564707,-2.81528 1.086599,0 2.090881,0.29634 1.020745,0.27989 2.025026,1.02075 1.020745,0.7244 1.761608,1.86039 0.740864,1.11953 1.201845,2.93053 0.477446,1.811 0.477446,4.09944 0,2.30491 -0.493909,4.18176 -0.477445,1.86039 -1.2677,3.06224 -0.77379,1.18538 -1.810999,1.9921 -1.020745,0.79025 -2.057954,1.11952 -1.037208,0.32928 -2.090881,0.32928 z m -13.533103,-4.44518 q 0,0.80671 0.197563,1.38294 0.197564,0.55976 0.460982,0.87257 0.279882,0.29635 0.806718,0.47745 0.526836,0.16463 0.9055,0.21403 0.395127,0.0494 1.103063,0.0823 0.246954,0.14818 0.246954,0.57623 0,0.42806 -0.246954,0.57623 -5.53178,-0.0659 -5.630562,-0.0659 l -5.712879,0.0659 q -0.246955,-0.14817 -0.246955,-0.57623 0,-0.42805 0.246955,-0.57623 0.707936,-0.0329 1.086599,-0.0823 0.395127,-0.0494 0.921964,-0.21403 0.526836,-0.1811 0.790254,-0.47745 0.279882,-0.31281 0.477445,-0.87257 0.197564,-0.57623 0.197564,-1.38294 v -10.55319 q 0,-1.18538 -0.148173,-1.49819 -0.131709,-0.31281 -0.493909,-0.31281 -1.531118,0 -3.506753,0.83964 -0.691473,-0.47744 -0.740863,-1.44879 l 3.589071,-1.4488 q 2.535399,-1.00429 3.704317,-1.53112 1.004281,-0.49391 1.67929,-0.49391 0.576227,0 0.576227,0.57623 -0.263418,1.90978 -0.263418,3.70431 z" />
    </g>
    <circle
       style="fill:#ffffff;stroke-width:0.16692095"
       id="path12"
       cx="74.73877"
       cy="145.27553"
       r="16.215179" />
    <circle
       style="fill:#1a1a1a;stroke-width:0.12825565"
       id="path31"
       cx="76.254509"
       cy="141.70461"
       r="9.8940086" />
    <circle
       style="fill:#ffffff;stroke-width:0.16692095"
       id="path12-8"
       cx="151.34167"
       cy="121.31667"
       r="16.215179" />
    <circle
       style="fill:#1a1a1a;stroke-width:0.12825565"
       id="path31-1"
       cx="148.88866"
       cy="124.88951"
       r="9.8940086" />
    <g
       aria-label="100K"
       style="font-style:normal;font-variant:normal;font-weight:bold;font-stretch:normal;font-size:33.28303146px;line-height:1.25;font-family:'Linux Libertine G';-inkscape-font-specification:'Linux Libertine G Bold';letter-spacing:0px;word-spacing:0px;fill:#003dbb;fill-opacity:1;stroke:none;stroke-width:0.08320757"
       id="text839-9">
      <path
         id="path26"
         style="font-style:normal;font-variant:normal;font-weight:bold;font-stretch:normal;font-family:'Linux Libertine G';-inkscape-font-specification:'Linux Libertine G Bold';fill:#003dbb;stroke-width:0.08320757"
         d="m 167.09872,149.96439 q 0,-0.68257 -0.065,-1.17011 -0.065,-0.48755 -0.26003,-0.81258 -0.17876,-0.32503 -0.35753,-0.50379 -0.17877,-0.19502 -0.55255,-0.29253 -0.37379,-0.11376 -0.68256,-0.14626 -0.29253,-0.0325 -0.84508,-0.065 -0.24377,-0.14626 -0.24377,-0.5688 0,-0.42254 0.24377,-0.5688 2.66524,0.065 5.13547,0.065 2.38896,0 5.05421,-0.065 0.24377,0.14626 0.24377,0.5688 0,0.42254 -0.24377,0.5688 -0.55255,0.0325 -0.86133,0.065 -0.29253,0.0325 -0.66631,0.14626 -0.37379,0.0975 -0.55255,0.29253 -0.17877,0.17876 -0.37379,0.50379 -0.17876,0.32503 -0.24377,0.81258 -0.065,0.48754 -0.065,1.17011 v 5.67176 q 0.74756,-0.13001 1.52764,-0.66631 0.79632,-0.5363 2.34021,-1.91767 2.51898,-2.09644 3.55907,-3.15279 2.61649,-2.66524 -0.16251,-2.92527 -0.14627,-0.14626 -0.14627,-0.5688 0,-0.42254 0.14627,-0.5688 3.12028,0.065 4.09537,0.065 0.0325,0 3.15279,-0.065 0.14626,0.14626 0.14626,0.5688 0,0.42254 -0.14626,0.5688 -0.60131,0.0813 -1.17011,0.27628 -0.5688,0.17876 -0.97509,0.37378 -0.39003,0.19502 -0.94258,0.61756 -0.5363,0.40629 -0.82883,0.66631 l -0.91008,0.82882 -0.95884,0.86133 -3.62408,3.2178 q -0.14626,0.13001 -0.24377,0.26002 -0.0975,0.11376 -0.13001,0.22752 -0.0325,0.11376 -0.0488,0.17877 0,0.065 0,0.17876 0.0163,0.0975 0.0163,0.13001 0,0.30878 0.99134,1.49514 l 7.29692,8.61329 q 0.6013,0.69881 1.18636,0.99134 0.58505,0.29252 1.41388,0.40628 0.14626,0.14627 0.14626,0.5688 0,0.42254 -0.14626,0.56881 -3.12029,-0.065 -3.70534,-0.065 -2.32396,0 -3.65659,0.065 -0.13001,0 -0.16251,-0.19502 -0.11376,-0.92634 -1.20261,-2.34021 l -5.02171,-6.54935 q -0.50379,-0.65006 -0.87758,-0.92634 -0.35753,-0.27627 -0.95883,-0.32503 v 6.20807 q 0,0.68256 0.065,1.17011 0.065,0.48754 0.24377,0.81257 0.19502,0.32503 0.37379,0.52005 0.17876,0.17876 0.55255,0.29253 0.37378,0.0975 0.66631,0.13001 0.30878,0.0325 0.86133,0.065 0.24377,0.14627 0.24377,0.5688 0,0.42254 -0.24377,0.56881 -2.66525,-0.065 -5.05421,-0.065 -2.47023,0 -5.13547,0.065 -0.24377,-0.14627 -0.24377,-0.56881 0,-0.42253 0.24377,-0.5688 0.55255,-0.0325 0.84508,-0.065 0.30877,-0.0325 0.68256,-0.13001 0.37378,-0.11377 0.55255,-0.29253 0.17877,-0.19502 0.35753,-0.52005 0.19502,-0.32503 0.26003,-0.81257 0.065,-0.48755 0.065,-1.17011 z m -12.23736,-1.49514 q -0.45505,0 -0.82883,0.19502 -0.35753,0.17876 -0.76382,0.78007 -0.39003,0.58505 -0.66631,1.57639 -0.27627,0.99134 -0.45504,2.73025 -0.17877,1.72266 -0.17877,4.06287 0,0.73132 0,1.18636 0.0162,0.45504 0.0488,1.31637 0.0325,0.86133 0.0975,1.44638 0.0813,0.5688 0.19501,1.33262 0.13002,0.76382 0.34128,1.28387 0.21127,0.50379 0.48755,0.97509 0.27627,0.47129 0.68256,0.71506 0.40629,0.22752 0.91008,0.22752 0.55255,0 1.02385,-0.42254 0.47129,-0.43879 0.89383,-1.46263 0.43879,-1.02384 0.68256,-3.03903 0.26002,-2.03143 0.26002,-4.89169 0,-2.11269 -0.24377,-3.72159 -0.24377,-1.6089 -0.65006,-2.50273 -0.40628,-0.91008 -0.87758,-1.34887 -0.45504,-0.43879 -0.95883,-0.43879 z m -0.16252,19.2255 q -1.77141,0 -3.21779,-0.82883 -1.43013,-0.82882 -2.35647,-2.2427 -0.92633,-1.41388 -1.43013,-3.2503 -0.48754,-1.85266 -0.48754,-3.9166 0,-4.84294 2.16145,-7.6057 2.16144,-2.779 5.493,-2.779 1.07259,0 2.06393,0.29253 1.0076,0.27627 1.99894,1.00759 1.00759,0.71507 1.7389,1.83642 0.73132,1.1051 1.18636,2.89276 0.4713,1.78766 0.4713,4.04662 0,2.27521 -0.48755,4.12788 -0.47129,1.83641 -1.25136,3.02277 -0.76382,1.17011 -1.78767,1.96643 -1.00759,0.78007 -2.03143,1.1051 -1.02384,0.32503 -2.06394,0.32503 z m -16.93404,-19.2255 q -0.45504,0 -0.82883,0.19502 -0.35753,0.17876 -0.76382,0.78007 -0.39003,0.58505 -0.66631,1.57639 -0.27627,0.99134 -0.45504,2.73025 -0.17877,1.72266 -0.17877,4.06287 0,0.73132 0,1.18636 0.0163,0.45504 0.0488,1.31637 0.0325,0.86133 0.0975,1.44638 0.0813,0.5688 0.19502,1.33262 0.13001,0.76382 0.34128,1.28387 0.21127,0.50379 0.48754,0.97509 0.27628,0.47129 0.68256,0.71506 0.40629,0.22752 0.91009,0.22752 0.55255,0 1.02384,-0.42254 0.47129,-0.43879 0.89383,-1.46263 0.43879,-1.02384 0.68256,-3.03903 0.26003,-2.03143 0.26003,-4.89169 0,-2.11269 -0.24378,-3.72159 -0.24377,-1.6089 -0.65005,-2.50273 -0.40629,-0.91008 -0.87758,-1.34887 -0.45505,-0.43879 -0.95884,-0.43879 z m -0.16252,19.2255 q -1.77141,0 -3.21779,-0.82883 -1.43013,-0.82882 -2.35646,-2.2427 -0.92634,-1.41388 -1.43013,-3.2503 -0.48755,-1.85266 -0.48755,-3.9166 0,-4.84294 2.16145,-7.6057 2.16144,-2.779 5.493,-2.779 1.0726,0 2.06394,0.29253 1.00759,0.27627 1.99893,1.00759 1.00759,0.71507 1.73891,1.83642 0.73131,1.1051 1.18635,2.89276 0.4713,1.78766 0.4713,4.04662 0,2.27521 -0.48755,4.12788 -0.47129,1.83641 -1.25136,3.02277 -0.76382,1.17011 -1.78766,1.96643 -1.0076,0.78007 -2.03144,1.1051 -1.02384,0.32503 -2.06394,0.32503 z m -13.35871,-4.3879 q 0,0.79632 0.19501,1.36512 0.19502,0.55256 0.45505,0.86133 0.27627,0.29253 0.79632,0.4713 0.52005,0.16251 0.89383,0.21127 0.39004,0.0488 1.08885,0.0813 0.24377,0.14627 0.24377,0.5688 0,0.42254 -0.24377,0.56881 -5.4605,-0.065 -5.55801,-0.065 l -5.63926,0.065 q -0.24377,-0.14627 -0.24377,-0.56881 0,-0.42253 0.24377,-0.5688 0.69881,-0.0325 1.0726,-0.0813 0.39003,-0.0488 0.91008,-0.21127 0.52005,-0.17877 0.78007,-0.4713 0.27628,-0.30877 0.47129,-0.86133 0.19502,-0.5688 0.19502,-1.36512 v -10.4172 q 0,-1.1701 -0.14626,-1.47888 -0.13001,-0.30878 -0.48755,-0.30878 -1.51138,0 -3.46156,0.82882 -0.68256,-0.47129 -0.73132,-1.43013 l 3.54282,-1.43013 q 2.50273,-0.99134 3.65659,-1.51138 0.99134,-0.48755 1.65765,-0.48755 0.5688,0 0.5688,0.5688 -0.26002,1.88518 -0.26002,3.65659 z" />
    </g>
  </g>
</svg>
